<?xml version="1.0" encoding="UTF-8"?><svg xmlns="http://www.w3.org/2000/svg" viewBox="0 0 2016.08 2519.7"><g style="isolation:isolate;"><g id="uuid-9238ec21-d117-4b11-9034-3dd6eb9cb053"><g id="uuid-892619bc-0a67-40fd-8e55-b08a199c6dc7"><path d="M595.48,1482.38s-52.84,278.06-12.59,523.71l333.7,38.05,118.95-470.63-440.06-91.13Z" style="fill:#fe0000; stroke-width:0px;"/><path d="M595.48,1482.38s-52.84,278.06-12.59,523.71l333.7,38.05,118.95-470.63-440.06-91.13ZM793.73,1855.7c35.91,7.17,72.65-4.3,108.19-13.21,1.2-.3,2.4.81,2.54,2.15,1.83,18.35-3.31,36.33-8.12,53.82-4.21,15.27-6.7,32.57-14.62,46.17-13.61,23.32-38.55,26.41-60.63,26.13-29.14-.35-58.93-7.13-85.18-20.97-45.32-23.94-54.3-76.04-52.81-129.95.89-31.56-6.23-61.37,133.72-51.44,34.3,2.44,71.62-2.16,105.91-.68,3.42-.25-81.67,60.1-129,87.98Z" style="fill:#c2171c; mix-blend-mode:multiply; stroke-width:0px;"/><path d="M582.88,2006.08l333.7,38.05,118.95-470.63-440.06-91.13s-52.84,278.06-12.59,523.71ZM632.69,1789.36c1.74-28.4,15.88-45.5,46.16-42.67,15.08,1.4,30.25.57,45.37-.09,40.82-1.79,81.76-2.23,122.66-2.41,21.22-.63,42.44-1.08,63.75-1.6,24.35-.6,44.45,3.68,45.11,31.57.92,38.94-19.4,76.34-30.03,112.87-8.65,29.68-17.53,63.92-42.97,83.95-22.78,17.95-58.55,14.76-85.41,12.16-36.18-3.48-76.18-6.83-108.52-24.94-46.84-26.23-56.96-81.31-57.27-132.39-.08-12.56.44-24.88,1.15-36.46Z" style="fill:#c2171c; mix-blend-mode:multiply; opacity:.5; stroke-width:0px;"/><path d="M481.78,2269.72c69.55-47.72,112.52-79.61,112.52-79.61,0,0,9.27-128.1-1.93-155.85-11.21-27.75,8.33-30.97,8.33-30.97,143.33,59.24,292.73,33.55,292.73,33.55-15.26,98.9-31.17,286.66-31.17,286.66-16.03,21.81-38.44,43.68-53.92,62.39-.97-3.38-2-6.73-3.5-9.91-1.06-2.26-9.38,17.93-10.88,26.84-54.98,63.02-108.18,104.12-166.81,113.55-108.29,17.43-203.75-39.61-203.75-39.61-13.23-38.96,10.51-174.18,58.37-207.05Z" style="fill:#444142; stroke-width:0px;"/><path d="M893.43,2036.85s-149.4,25.7-292.73-33.55c0,0-19.54,3.22-8.33,30.97,11.2,27.75,1.93,155.85,1.93,155.85,0,0-42.96,31.89-112.52,79.61-47.87,32.87-71.6,168.09-58.37,207.05,0,0,95.46,57.04,203.75,39.61,58.63-9.43,111.83-50.53,166.81-113.55,1.5-8.91,9.82-29.1,10.88-26.84,1.5,3.19,2.53,6.53,3.5,9.91,15.48-18.71,37.89-40.58,53.92-62.39,0,0,15.91-187.76,31.17-286.66ZM758.33,2268.44c1.1.59,2.78,2.09,1.86,3.11-142.71,155.01-222.12,136.31-242.28,134.38-18.49-1.77-39.72-4.56-53.93-17.75-12.78-11.9-10.27-32.34-6.14-47.44,6.14-22.58,16.2-42.77,33.36-59.01,15.43-14.63,32.96-26.51,51.1-37.45,6.11-4.97,12.51-9.58,19.27-13.67,29.7-17.92,64.27-14.85,97.39-18.74-11.64-11.51-29.94-15.86-45.57-17.99-1.79-.24-3.31-2.31-2.41-4.09,9.76-19.19,8.24-41.1,12.31-61.77.29-1.48,1.66-2.96,3.33-2.6,36.28,7.83,73.28,16.45,110.62,15.11,7.25-.26,19.89-2,25.74,3.67,6.31,6.1,4.93,9.67,6.03,18.32,2.11,16.52,5.75,45.92-7.45,58.94-14.22,14.07-36.09,9.18-52.36,18.48,15.34,11.18,32.41,19.63,49.14,28.5Z" style="fill:#444142; mix-blend-mode:multiply; opacity:.5; stroke-width:0px;"/><path d="M893.43,2036.85s-149.4,25.7-292.73-33.55c0,0-19.54,3.22-8.33,30.97,5.21,12.92,5.99,47.59,5.33,80.96,4.23-7.04,10.07-11.88,18.19-12.35,9.3-.56,21.01,4.97,29.76,7.43,14.71,4.14,29.4,8.63,44.31,11.97,28.14,6.31,56.3,8.23,85.07,8.63,12.55.16,33.96-3.53,44.79,4.82,5.85,4.5,3.44,19.41,3.51,24.91.5,43.51-1.44,90.29-14.41,132.17-10.24,33.03-32.32,54.69-57.72,76.89-27.44,23.99-55.67,49-89.35,63.9-35.73,15.81-74.84,20.47-113.53,15.37-30.95-4.1-70.75-10.28-93.62-33.81-18.03-18.57-22.11-41.98-19.08-65.9-15.02,48.95-19.95,104.75-12.21,127.54,0,0,95.46,57.04,203.75,39.61,58.63-9.43,111.83-50.53,166.81-113.55,1.5-8.91,9.82-29.1,10.88-26.84,1.5,3.19,2.53,6.53,3.5,9.91,15.48-18.71,37.89-40.58,53.92-62.39,0,0,15.91-187.76,31.17-286.66Z" style="fill:#444142; mix-blend-mode:multiply; opacity:.5; stroke-width:0px;"/><path d="M445,2431.19c24.96,13.42,49.92,24.1,77.82,29.73,48.94,9.87,104.14,11.79,150.67-9.02,46.83-20.93,87.55-58.24,123.47-94.12,25.54-25.52,49.23-52.95,69.63-82.65-2.7,29.22-4.32,48.39-4.32,48.39-16.03,21.81-38.44,43.68-53.92,62.39-.97-3.38-2-6.73-3.5-9.91-1.06-2.26-9.38,17.93-10.88,26.84-54.98,63.02-108.18,104.12-166.81,113.55-108.29,17.43-203.75-39.61-203.75-39.61-4.08-12-4.62-33.15-2.06-57.6,8.01,4.03,16.04,7.93,23.65,12.02Z" style="stroke-width:0px;"/><path d="M535.11,2258.05s-57.66,26.09-66.9,78.05c0,0-17,41.48,23.25,56.32,0,0-23.4-71.86,43.65-134.37Z" style="fill:#cdcfd0; mix-blend-mode:color-dodge; opacity:.8; stroke-width:0px;"/><path d="M603.8,1959.64s-40.55-12.41-45.81,22c-5.24,34.43-5.33,89.29,19.67,95.17,24.98,5.88,198.58,62.4,326.54,31.16,0,0,5.76,2.95,15.77-15.19,10.02-18.14,33.17-95.39,2.44-90.75-30.72,4.63-167.81,7.52-318.61-42.39Z" style="fill:#eff2ee; stroke-width:0px;"/><path d="M603.8,1959.64s-40.55-12.41-45.81,22c-5.24,34.43-5.33,89.29,19.67,95.17,24.98,5.88,198.58,62.4,326.54,31.16,0,0,5.76,2.95,15.77-15.19,10.02-18.14,33.17-95.39,2.44-90.75-30.72,4.63-167.81,7.52-318.61-42.39Z" style="fill:#dfe2df; mix-blend-mode:multiply; stroke-width:0px;"/><path d="M593.81,1973.38s-23.09-7.78-26.05,16.88c-2.96,24.67.04,58.06,51.85,68.29,51.82,10.22,172.85,35.74,213.78,11.63,40.91-24.1,9.11-50.94-34.3-56.15-43.42-5.2-158.25-24-205.29-40.66Z" style="fill:#eff2ee; stroke-width:0px;"/><path d="M591.17,1986.86s-11.52-3.88-13,8.43c-1.48,12.31.03,28.97,25.86,34.06,25.85,5.11,86.25,17.83,106.67,5.82,20.41-12.03,4.54-25.42-17.11-28.01-21.66-2.6-78.96-11.98-102.42-20.29Z" style="fill:#eff2ee; mix-blend-mode:screen; stroke-width:0px;"/></g><g id="uuid-2ee47832-35be-498a-b582-bc78d972e113"><path d="M1428.16,1482.38s52.84,278.06,12.59,523.71l-333.7,38.05-118.95-470.63,440.06-91.13Z" style="fill:#fe0000; stroke-width:0px;"/><path d="M988.1,1573.5l118.95,470.63,333.7-38.05c40.24-245.65-12.59-523.71-12.59-523.71l-440.06,91.13ZM1100.92,1767.72c34.29-1.48,71.61,3.12,105.91.68,139.95-9.93,132.82,19.88,133.72,51.44,1.49,53.91-7.49,106.01-52.81,129.95-26.25,13.85-56.04,20.62-85.18,20.97-22.08.28-47.02-2.81-60.63-26.13-7.92-13.6-10.41-30.9-14.62-46.17-4.81-17.49-9.95-35.47-8.12-53.82.14-1.34,1.34-2.45,2.54-2.15,35.54,8.91,72.28,20.37,108.19,13.21-47.33-27.88-132.41-88.23-129-87.98Z" style="fill:#c2171c; mix-blend-mode:multiply; stroke-width:0px;"/><path d="M1428.16,1482.38l-440.06,91.13,118.95,470.63,333.7-38.05c40.24-245.65-12.59-523.71-12.59-523.71ZM1392.1,1825.82c-.31,51.08-10.43,106.16-57.27,132.39-32.34,18.1-72.34,21.46-108.52,24.94-26.86,2.6-62.63,5.79-85.41-12.16-25.44-20.02-34.32-54.26-42.97-83.95-10.63-36.53-30.95-73.93-30.03-112.87.66-27.89,20.76-32.17,45.11-31.57,21.31.52,42.53.98,63.75,1.6,40.9.17,81.84.62,122.66,2.41,15.11.66,30.29,1.49,45.37.09,30.27-2.83,44.42,14.27,46.16,42.67.71,11.57,1.23,23.89,1.15,36.46Z" style="fill:#c2171c; mix-blend-mode:multiply; opacity:.5; stroke-width:0px;"/><path d="M1541.86,2269.72c-69.55-47.72-112.52-79.61-112.52-79.61,0,0-9.27-128.1,1.93-155.85,11.21-27.75-8.33-30.97-8.33-30.97-143.33,59.24-292.73,33.55-292.73,33.55,15.26,98.9,31.17,286.66,31.17,286.66,16.03,21.81,38.44,43.68,53.92,62.39.97-3.38,2-6.73,3.5-9.91,1.06-2.26,9.38,17.93,10.88,26.84,54.98,63.02,108.18,104.12,166.81,113.55,108.29,17.43,203.75-39.61,203.75-39.61,13.23-38.96-10.51-174.18-58.37-207.05Z" style="fill:#444142; stroke-width:0px;"/><path d="M1161.38,2323.51c16.03,21.81,38.44,43.68,53.92,62.39.97-3.38,2-6.73,3.5-9.91,1.06-2.26,9.38,17.93,10.88,26.84,54.98,63.02,108.18,104.12,166.81,113.55,108.29,17.43,203.75-39.61,203.75-39.61,13.23-38.96-10.51-174.18-58.37-207.05-69.55-47.72-112.52-79.61-112.52-79.61,0,0-9.27-128.1,1.93-155.85,11.21-27.75-8.33-30.97-8.33-30.97-143.33,59.24-292.73,33.55-292.73,33.55,15.26,98.9,31.17,286.66,31.17,286.66ZM1314.46,2239.94c-16.27-9.3-38.13-4.41-52.36-18.48-13.2-13.02-9.56-42.42-7.45-58.94,1.1-8.65-.29-12.22,6.03-18.32,5.86-5.67,18.49-3.93,25.74-3.67,37.33,1.34,74.33-7.28,110.62-15.11,1.67-.36,3.03,1.12,3.33,2.6,4.06,20.67,2.55,42.58,12.31,61.77.9,1.77-.62,3.85-2.41,4.09-15.62,2.13-33.92,6.48-45.57,17.99,33.11,3.89,67.69.82,97.39,18.74,6.76,4.09,13.16,8.7,19.27,13.67,18.13,10.94,35.66,22.82,51.1,37.45,17.16,16.23,27.21,36.43,33.36,59.01,4.14,15.1,6.65,35.54-6.14,47.44-14.21,13.19-35.44,15.98-53.93,17.75-20.16,1.93-99.57,20.63-242.28-134.38-.93-1.02.76-2.52,1.86-3.11,16.74-8.87,33.81-17.32,49.15-28.5Z" style="fill:#444142; mix-blend-mode:multiply; opacity:.5; stroke-width:0px;"/><path d="M1130.21,2036.85s149.4,25.7,292.73-33.55c0,0,19.54,3.22,8.33,30.97-5.21,12.92-5.99,47.59-5.33,80.96-4.23-7.04-10.07-11.88-18.19-12.35-9.3-.56-21.01,4.97-29.76,7.43-14.71,4.14-29.4,8.63-44.31,11.97-28.14,6.31-56.3,8.23-85.07,8.63-12.55.16-33.96-3.53-44.79,4.82-5.85,4.5-3.44,19.41-3.51,24.91-.5,43.51,1.44,90.29,14.41,132.17,10.24,33.03,32.32,54.69,57.72,76.89,27.44,23.99,55.67,49,89.35,63.9,35.73,15.81,74.84,20.47,113.53,15.37,30.95-4.1,70.75-10.28,93.62-33.81,18.03-18.57,22.11-41.98,19.08-65.9,15.02,48.95,19.96,104.75,12.21,127.54,0,0-95.46,57.04-203.75,39.61-58.63-9.43-111.83-50.53-166.81-113.55-1.5-8.91-9.82-29.1-10.88-26.84-1.5,3.19-2.53,6.53-3.5,9.91-15.48-18.71-37.89-40.58-53.92-62.39,0,0-15.91-187.76-31.17-286.66Z" style="fill:#444142; mix-blend-mode:multiply; opacity:.5; stroke-width:0px;"/><path d="M1578.65,2431.19c-24.96,13.42-49.92,24.1-77.82,29.73-48.94,9.87-104.14,11.79-150.67-9.02-46.83-20.93-87.55-58.24-123.47-94.12-25.54-25.52-49.23-52.95-69.63-82.65,2.7,29.22,4.32,48.39,4.32,48.39,16.03,21.81,38.44,43.68,53.92,62.39.97-3.38,2-6.73,3.5-9.91,1.06-2.26,9.38,17.93,10.88,26.84,54.98,63.02,108.18,104.12,166.81,113.55,108.29,17.43,203.75-39.61,203.75-39.61,4.08-12,4.62-33.15,2.06-57.6-8.01,4.03-16.04,7.93-23.65,12.02Z" style="stroke-width:0px;"/><path d="M1488.53,2258.05s57.66,26.09,66.9,78.05c0,0,17,41.48-23.25,56.32,0,0,23.4-71.86-43.65-134.37Z" style="fill:#cdcfd0; mix-blend-mode:color-dodge; opacity:.8; stroke-width:0px;"/><path d="M1419.84,1959.64s40.55-12.41,45.81,22c5.24,34.43,5.33,89.29-19.67,95.17-24.98,5.88-198.57,62.4-326.54,31.16,0,0-5.75,2.95-15.77-15.19-10.02-18.14-33.17-95.39-2.44-90.75,30.72,4.63,167.81,7.52,318.61-42.39Z" style="fill:#eff2ee; stroke-width:0px;"/><path d="M1419.84,1959.64s40.55-12.41,45.81,22c5.24,34.43,5.33,89.29-19.67,95.17-24.98,5.88-198.57,62.4-326.54,31.16,0,0-5.75,2.95-15.77-15.19-10.02-18.14-33.17-95.39-2.44-90.75,30.72,4.63,167.81,7.52,318.61-42.39Z" style="fill:#dfe2df; mix-blend-mode:multiply; stroke-width:0px;"/><path d="M1429.83,1973.38s23.09-7.78,26.05,16.88c2.96,24.67-.04,58.06-51.85,68.29-51.82,10.22-172.85,35.74-213.78,11.63-40.91-24.1-9.11-50.94,34.3-56.15,43.42-5.2,158.25-24,205.29-40.66Z" style="fill:#eff2ee; stroke-width:0px;"/><path d="M1432.47,1986.86s11.52-3.88,13,8.43c1.48,12.31-.03,28.97-25.86,34.06-25.85,5.11-86.25,17.83-106.67,5.82-20.41-12.03-4.54-25.42,17.11-28.01,21.66-2.6,78.96-11.98,102.42-20.29Z" style="fill:#eff2ee; mix-blend-mode:screen; stroke-width:0px;"/></g><g id="uuid-1aa44884-d9a5-4d0e-b6e9-b11e00ef4b45"><path d="M1582.44,692.35s-93.95,168.76-258.65,151.48l88.91,346.86s345.28-80.95,436.97-393.23l-267.24-105.11Z" style="fill:#fe0000; stroke-width:0px;"/><path d="M1323.79,843.83l88.91,346.86s345.28-80.95,436.97-393.23l-267.24-105.11s-93.95,168.76-258.65,151.48ZM1493.99,821.24c13.83-10.07,28.89-16.79,45.71-8.57,22.98,11.24,44.38,36.62,62.32,53.72,21.91,20.94,40.88,37.91,55.83,65.26,13.18,24.14.99,48.63-16.71,66.31-15.59,15.57-122.67,89.48-125.18,38.16-2.11-42.04-7.26-82.42-22.88-121.92-6.76-17.1-29.04-45.47-38.97-60.75-5.78-8.88,39.24-32.91,39.88-32.21Z" style="fill:#c2171c; mix-blend-mode:multiply; stroke-width:0px;"/><path d="M1421.69,832.08c32.89,27.35,63.53,59.73,69.43,103.17,2.28,16.68-.31,30.12-3.64,46.32-2.21,10.71.16,19.96,3.88,30.11,11.67,31.9,10.46,67.28,11.91,100.81.1,2.33,2.64,3.04,4.4,2.11,26.11-14.08,54.2-24.64,79.47-40.33,16.05-9.97,31.98-20.26,46.95-31.82,23.8-18.4,61.61-48.39,59.2-82.67-1.65-23.01-18.29-35.07-34.67-48.98-20.84-17.75-39.88-37.07-60.08-55.47-27.61-25.2-61.75-50.87-78.82-85.29,40.93-38.61,62.73-77.68,62.73-77.68l267.24,105.11c-91.69,312.27-436.97,393.23-436.97,393.23l-88.91-346.86c36.11,3.78,68.85-1.38,97.89-11.75Z" style="fill:#c2171c; mix-blend-mode:multiply; stroke-width:0px;"/><path d="M1587.37,671.33s3-21.84,49.32-5.71c46.32,16.12,224.6,111.7,218.8,145.95-5.83,34.24-52.68,120.02-70.19,136.39,0,0-10.22,17.52-41.54,3.22-50.09-22.87-198.31-142.35-217.28-193.45,0,0,.13-10.34,17.42-29.51,17.29-19.19,43.46-56.88,43.46-56.88Z" style="fill:#fff8ef; stroke-width:0px;"/><path d="M1526.49,757.72c18.97,51.11,167.18,170.58,217.28,193.45,31.32,14.3,41.54-3.22,41.54-3.22,17.5-16.38,64.36-102.15,70.19-136.39.93-5.58-3.1-12.81-10.54-21.03-16.07,8.07-45.54-8.5-58.81-14.62-32.21-14.81-63.21-31.07-92.85-50.55-27.11-17.81-56.65-35.88-73.09-64.32-30.52-5.99-32.83,10.28-32.83,10.28,0,0-26.18,37.69-43.46,56.88-17.29,19.16-17.42,29.51-17.42,29.51ZM1609.21,695.33c8.6-1.16,14.72,7.18,20.08,12.69,3.74,3.84,7.43,7.75,11.11,11.63,23.35,19.44,47.77,37.26,74.87,51.9,30.39,16.43,67.12,28.63,93.15,51.62,18.7,16.6,4.77,39.55-4.05,57.53-5.21,10.61-11.43,20.15-22.82,24.9-12.2,5.06-26.8-2.34-37.26-7.67-30.06-15.28-55.34-34.46-79.08-57.98-25.07-24.84-48.01-52.74-59.35-86.32-2.83-8.35-15.33-55.75,3.35-58.29Z" style="fill:#dfe2df; mix-blend-mode:multiply; stroke-width:0px;"/><path d="M1543.91,728.21c17.29-19.19,43.46-56.88,43.46-56.88,0,0,3-21.84,49.32-5.71,43.44,15.13,202.82,100.06,217.8,138.84-.99,1.03-2.53,1.72-4.82,1.88-3.69.25-7.36,0-10.93-1.04-10.59-3.11-20.98-7.51-31.25-11.64-19.65-7.91-39.43-15.98-58.47-25.34-37.79-18.56-76.12-41.14-110.1-66.02-7.77-5.68-19.41-19.62-30.15-18.79-9.22.73-14.66,7.37-19.56,14.68-12.88,19.27-22.96,46.84-18.71,70.02,2.96,16.14,13.93,30.46,24.24,42.64,11.8,13.95,23.72,27.72,36.69,40.6,25.16,24.96,52.55,48.75,82.27,68.25,13.8,9.08,45.48,28.79,70.02,30.24-3.87,4.14-15.41,12.44-39.96,1.24-50.09-22.87-198.31-142.35-217.28-193.45,0,0,.13-10.34,17.42-29.51Z" style="fill:#dfe2df; mix-blend-mode:multiply; stroke-width:0px;"/><path d="M1614.53,675.24c24.26,29.91,67.29,51.03,99.27,71.52,35.97,23.08,81.17,43.64,122.52,55.29,1.11.3,3.82,3.88,1.87,3.53-42.9-7.82-86.86-29.39-123.84-51.97-33.9-20.71-78.37-44.29-100.93-78.14-.84-1.26.51-.99,1.1-.24Z" style="fill:#bec0c2; stroke-width:0px;"/><path d="M1529.94,814.7s-33.66,26.08-65.72,36.08c0,0,37.74,14.9,65.72-36.08Z" style="fill:#f9b4a9; opacity:.4; stroke-width:0px;"/><path d="M1012.48,1591.95c.51-2.25,4.12-2.9,5.13-.66,12.87,28.08,10.9,62.27,23.16,90.28,134.16-.86,286.29-20.11,445.58-74.14,0,0-59.95-619.72-227.22-888.72l-535.74,42.46s-188.37,405.99-190.53,833.18c0,0,178.54,76.01,440.96,86.14,13.96-29.11,31.32-56.71,38.66-88.54Z" style="fill:#fe0000; stroke-width:0px;"/><path d="M1259.13,718.7l-535.74,42.46s-70.67,152.36-125.92,368.6c8.54,44.05,31.91,82.21,66.76,112.86,24.33,21.36,51.63,40.2,80.43,55.06,27.81,14.36,58.41,22.5,85.67,37.97,2.1,1.2,1.67,4.55-.66,5.13-15.5,4.04-31.85.63-47.59-.58-17.31-1.32-34.62-3.02-51.87-5.28-28.5-3.71-56.76-8.54-84.42-16.56-28.26-8.2-56.87-18.97-82.18-34.54-7.52,41.01-14.01,83.28-19.06,126.42,4.63,3.14,9.33,6.1,14.25,8.79,18.74,10.25,39,15.93,59,23.12,41.24,14.82,83.06,27.11,125.12,39.31,25.47,7.39,51.98,11.19,77.24,19.09,15.85,4.97,37.73,13.23,35.76,33.45-1.89,19.17-10.9,36.13-28.48,45.19-39.7,20.45-89.68,10.74-132.06,6.75-37.65-3.51-74.53-10.18-111.96-15.23-15-2.03-34.8-2.31-49.98-9.13-.29,10.89-.51,21.81-.56,32.77,0,0,178.54,76.01,440.96,86.14,13.96-29.11,31.32-56.71,38.66-88.54.51-2.25,4.12-2.9,5.13-.66,12.87,28.08,10.9,62.27,23.16,90.28,134.16-.86,286.29-20.11,445.58-74.14,0,0-59.95-619.72-227.22-888.72ZM1103.04,1344.54c29.19-23.76,84.36-13,188.16-91.54,4.92-4.23,9.78-8.51,14.46-12.99,8.43-8.07,16.11-17.11,24.83-24.86,4.65-4.13,11.22-10.6,17.94-10.6,17.39.05,17.92,29.19,18.43,41.18.96,22.13-1.62,82.08-143.89,107.34-21.85,3.88-43.82,7.68-66.07,7.95-42.51.48-55.01-15.53-53.87-16.49ZM1278.81,1595.25c-13.11,2.47-26.19,4.75-38.9,7.39-29.46,6.13-72.82,18.82-101.06,2.61-16.85-9.65-45.44-60.87-9.17-63.96,40.81-3.48,81.68-7.42,121.99-15,21.4-4,42.67-8.59,62.96-16.67,19.01-7.59,57.35-28.9,76.44-11.19,11.27,10.46,8,32.73.9,43.95-7.26,11.49-18.58,20.38-30.34,26.89-25.28,14.01-54.11,20.53-82.82,25.98Z" style="fill:#c2171c; mix-blend-mode:multiply; stroke-width:0px;"/><path d="M931.02,1202.86s22.47,414.18-33.69,422.6c-51.82,7.76-299.62-41.82-363.03-64.97-.98.37-2.02.74-3.11,1.04-11.56,3.32-15.39,15.46-15.71,26.28-.32,11.55,2.55,22.39,9.33,30.2,91.6,46.95,407.24,92.09,446.94,69.22,0,0,36.5,1.41,37.91-47.74,1.38-49.13,5.05-450.69,5.05-450.69l-83.7,14.05Z" style="fill:#eff2ee; stroke-width:0px;"/><path d="M931.02,1202.86s22.47,414.18-33.69,422.6c-51.82,7.76-299.62-41.82-363.03-64.97-.98.37-2.02.74-3.11,1.04-11.56,3.32-15.39,15.46-15.71,26.28-.32,11.55,2.55,22.39,9.33,30.2,91.6,46.95,407.24,92.09,446.94,69.22,0,0,36.5,1.41,37.91-47.74,1.38-49.13,5.05-450.69,5.05-450.69l-83.7,14.05ZM982.44,1650.02c-11.25,49.84-251.31,5.4-287.17-.8-34.72-6.01-69.85-12.02-103.32-23.34-13.53-4.56-46.32-11.14-45.47-30.6.05-1.54,1.22-2.83,2.82-2.82,19.3.04,37.3,6.1,55.62,11.57,21.16,6.26,42.99,10.34,64.74,14.09,45.78,7.92,91.99,13.29,138.26,17.4,22.6,1.99,45.41,3.02,68.12,2.25,18.03-.61,38.84.08,48.68-18.11,7.12-13.13,8.22-69.54,14.6-80.1,9.6-15.85,45.2-12.39,48.02-.45,3.32,14.06-2.29,99.37-4.89,110.91ZM994.99,1361.08c-6.35,11.27-25.26,10.18-35.74,6.38-3.43-1.24-7.98-3.38-8.08-7.64-.05-3.65,2.79-6.47,5.66-8.33,7.63-4.81,18.98-7.47,27.62-3.96,3.16-.54,6.41-.21,8.85,2.13,3.11,2.95,3.8,7.68,1.68,11.43Z" style="fill:#dfe2df; mix-blend-mode:multiply; stroke-width:0px;"/><path d="M1500.6,1581.98c-3-11.13-8.22-18.43-17.26-20.94-65.75,23.37-310.07,72.12-361.46,64.41-56.15-8.42-32.76-426.82-32.76-426.82l-81.44-8.43s.48,400.16,1.89,449.29c1.41,49.15,37.89,47.74,37.89,47.74,40.33,23.22,365.55-23.76,451.16-71.51,5.21-9.98,4.81-23.28,1.97-33.74Z" style="fill:#eff2ee; stroke-width:0px;"/><path d="M1500.6,1581.98c-3-11.13-8.22-18.43-17.26-20.94-65.75,23.37-310.07,72.12-361.46,64.41-56.15-8.42-32.76-426.82-32.76-426.82l-81.44-8.43s.48,400.16,1.89,449.29c1.41,49.15,37.89,47.74,37.89,47.74,40.33,23.22,365.55-23.76,451.16-71.51,5.21-9.98,4.81-23.28,1.97-33.74ZM1037.6,1344.41c7.71-2.99,19.2-1.73,23.88,3.48,8.64,9.71-4.41,17.39-12.95,19.25-8.4,1.82-24.22,1.6-25.66-9.76-1.12-8.67,7.23-13,14.73-12.97ZM1435.06,1599.72c-7.66,17.49-24.35,27.13-41.18,34.51-20.61,9.03-42.89,15.49-64.63,21.04-52.46,13.39-106.48,20.49-160.54,22.29-27.65.93-55.57,1.18-83.17-.88-14.84-1.09-30.36-2.42-42.7-11.59-14.17-10.57-16.06-31.4-17.52-47.51-2.13-23.16-1.99-47.35.24-70.51,2.13-21.88,29.01-25.24,41.37-8.1,6.91,9.56,5.53,24.66,5.8,35.8.77,28.41,8.96,56.14,40.39,61.35,58.71,9.77,116.03-3.6,173.75-13.53,29.51-5.06,59.26-9.05,88.33-16.34,17.84-4.47,39.67-15.89,58.2-10.66,1.89.55,2.39,2.5,1.67,4.12Z" style="fill:#dfe2df; mix-blend-mode:multiply; stroke-width:0px;"/><path d="M1434.98,1318.39c-60.3,28.57-126.98,40.81-192.63,50.42-82.95,12.18-165.93,23.34-250.03,19.42-43.74-2.06-217.89-27.29-260.85-37.77-39.8-9.7-78.81-22.73-117.2-36.9-19.25-7.13-38.34-15.16-55.73-25.74-6.99,38.23-13.13,77.56-18,117.6,19.57,13.03,41.69,24.41,62.64,30.79,509.82,155.54,775.16,44.06,867.85,5.32-6.06-41.05-11.57-80.85-20.6-131.13-5.08,2.82-10.21,5.52-15.45,7.99Z" style="fill:#562b01; stroke-width:0px;"/><path d="M1450.43,1310.4c-5.08,2.82-10.21,5.52-15.45,7.99-60.3,28.57-126.98,40.81-192.63,50.42-82.95,12.18-165.93,23.34-250.03,19.42-43.74-2.06-217.89-27.29-260.85-37.77-39.8-9.7-78.81-22.73-117.2-36.9-19.25-7.13-38.34-15.16-55.73-25.74-6.99,38.23-13.13,77.56-18,117.6,19.57,13.03,41.69,24.41,62.64,30.79,509.82,155.54,775.16,44.06,867.85,5.32-6.06-41.05-11.57-80.85-20.6-131.13ZM866.35,1449.48c-3.75,23.4-31.82,22.45-31.82,22.45-57.08,8.43-247.11-48.67-263.96-63.64-16.83-14.97-14.94-43.06-8.4-70.19,6.54-27.16,26.19-21.54,26.19-21.54,88.94,32.76,219.03,59.9,253.67,69.26,34.64,9.36,28.08,40.25,24.33,63.65ZM1016.12,1456.97c-8.43,42.13-40.7,35.8-51.95,31.6-11.22-4.21-17.55-37.91-15.45-58.28,2.1-20.34,21.06-18.24,21.06-18.24,0,0,54.77,2.81,46.34,44.92ZM1325.71,1461.18c-83.54,38.61-190.93,31.59-200.07,30.18-9.12-1.4-9.84-41.41-8.43-69.49,1.41-28.08,49.85-28.78,49.85-28.78,0,0,93.35-14.04,130.57-17.55,37.19-3.51,39.32,59.66,39.32,69.49s-11.25,16.15-11.25,16.15Z" style="fill:#562b01; mix-blend-mode:multiply; stroke-width:0px;"/><path d="M1101.79,1412.74s3.27-38.37-36.98-36.5c-40.25,1.89-97.34,1.89-97.34,1.89,0,0-48.68-12.18-55.25,14.03-6.54,26.2-2.79,94.53-2.79,94.53,0,0,2.79,31.82,40.25,34.64,0,0,90.53,8.43,123.31.94,0,0,25.5-3.04,30.18-27.4,4.68-24.33-1.38-82.13-1.38-82.13ZM1079.35,1478.65c-1.25,16.19-6.91,16.83-6.91,16.83-28.24,17.47-111.06,7.47-111.06,7.47-20.07-3.72-22.57-30.55-22.57-30.55,0,0-2.53-42.39,1.25-58.61,3.75-16.21,38.26-13.71,38.26-13.71,0,0,53.36,3.11,72.8,1.25,19.44-1.86,25.1,14.33,25.1,14.33,0,0,4.39,46.77,3.14,62.99Z" style="fill:#fdb944; stroke-width:0px;"/><path d="M1101.79,1412.74s1.97-24.14-17.33-33.18c.88,5.69-2.74,17.11-10.77,17.04-28.32-.21-59.24-2.58-87.53-.95-14.36.84-36.37-3.6-46.31,8.92-6.91,8.69-8.99,20.07-9.36,30.95-.61,18.11,2.53,36.11,1.86,54.2-.08,2.59-3.96,4.11-5.24,1.41-7.76-16.5-13.88-33.81-15.61-52.07-1.38-14.25-.72-28.45-.16-42.67-5.29,28.62-1.92,90.29-1.92,90.29,0,0,2.79,31.82,40.25,34.64,0,0,90.53,8.43,123.31.94,0,0,25.5-3.04,30.18-27.4,4.68-24.33-1.38-82.13-1.38-82.13ZM1079.35,1478.65c-1.25,16.19-6.91,16.83-6.91,16.83-28.24,17.47-111.06,7.47-111.06,7.47-20.07-3.72-22.57-30.55-22.57-30.55,0,0-2.53-42.39,1.25-58.61,3.75-16.21,38.26-13.71,38.26-13.71,0,0,53.36,3.11,72.8,1.25,19.44-1.86,25.1,14.33,25.1,14.33,0,0,4.39,46.77,3.14,62.99Z" style="fill:#fdb944; mix-blend-mode:multiply; stroke-width:0px;"/><path d="M1101.79,1412.74s.59-7.46-2.18-15.62c1.81,12.59,1.73,25.99,1.84,37.72.13,17.73.27,37.2-6.59,53.87-9.04,21.99-36.03,27.57-57.22,28.37-13.59.51-27.07-.35-40.63-.93-16.94-.72-34.78-.35-51.31-4.63-18.03-4.68-29.67-14.44-36.43-28.02.08,2.02.16,3.19.16,3.19,0,0,2.79,31.82,40.25,34.64,0,0,90.53,8.43,123.31.94,0,0,25.5-3.04,30.18-27.4,4.68-24.33-1.38-82.13-1.38-82.13Z" style="fill:#fdb944; mix-blend-mode:multiply; stroke-width:0px;"/><path d="M914.56,1421.41s-5.61-37.91,14.04-41.65c19.67-3.76,86.6,5.61,131.98,0,0,0-70.19,9.35-101.56,7.48-31.35-1.88-43.52,14.97-44.45,34.16Z" style="fill:#fdb944; mix-blend-mode:screen; stroke-width:0px;"/><path d="M582.75,1324.04s90.8,37.46,259.28,71.15c0,0-180.66-13.11-259.28-71.15Z" style="fill:#562b01; mix-blend-mode:screen; stroke-width:0px;"/><path d="M1135.95,1408.3s114.17-8.43,174.07-25.29c0,0-96.41,35.57-174.07,25.29Z" style="fill:#562b01; mix-blend-mode:screen; stroke-width:0px;"/><path d="M425.51,703.48s106.7,161,269.57,131.06l-61.87,352.69s-350.53-54.05-466.05-358.32l258.35-125.43Z" style="fill:#fe0000; stroke-width:0px;"/><path d="M425.51,703.48l-258.35,125.43c115.52,304.26,466.05,358.32,466.05,358.32l61.87-352.69c-162.88,29.94-269.57-131.06-269.57-131.06ZM565.91,854.19c-8.75,16.01-28.74,46-34.19,63.58-12.55,40.59-14.57,81.24-13.4,123.32,1.44,51.36-111-14.06-127.75-28.38-19.04-16.26-33.08-39.74-21.8-64.82,12.79-28.42,30.39-46.81,50.65-69.37,16.56-18.43,35.92-45.39,57.96-58.37,16.14-9.5,31.69-3.96,46.26,5.01.58-.74,47.32,19.73,42.27,29.03Z" style="fill:#c2171c; mix-blend-mode:multiply; stroke-width:0px;"/><path d="M596.54,830.38c-30.63,29.81-58.71,64.45-61.23,108.23-.96,16.81,2.63,30.01,7.2,45.9,3.03,10.51,1.38,19.91-1.54,30.32-9.15,32.7-5.24,67.88-4.1,101.43.08,2.33-2.39,3.23-4.23,2.44-27.12-12.02-55.97-20.38-82.34-34.07-16.78-8.7-33.45-17.73-49.27-28.1-25.18-16.5-65.17-43.49-65.41-77.85-.16-23.06,15.53-36.38,30.76-51.51,19.41-19.3,36.9-40.03,55.62-59.94,25.58-27.26,57.67-55.49,72-91.12-43.76-35.34-68.52-72.61-68.52-72.61l-258.35,125.43c115.52,304.26,466.05,358.32,466.05,358.32l61.87-352.69c-35.73,6.56-68.75,3.94-98.53-4.15Z" style="fill:#c2171c; mix-blend-mode:multiply; stroke-width:0px;"/><path d="M418.94,682.9s-4.68-21.54-49.59-1.89c-44.96,19.65-215.31,128.7-206.88,162.4,8.43,33.69,61.79,115.59,80.51,130.57,0,0,11.51,16.68,41.66,0,48.21-26.67,186.73-157.23,201.7-209.65,0,0-.93-10.3-19.65-28.08-18.72-17.8-47.75-53.36-47.75-53.36Z" style="fill:#fff8ef; stroke-width:0px;"/><path d="M466.69,736.26c-18.72-17.8-47.75-53.36-47.75-53.36,0,0-3.54-16.04-33.5-7.72-14.22,29.63-42.27,49.93-67.9,69.77-28.08,21.72-57.72,40.31-88.67,57.57-12.76,7.13-40.89,25.92-57.51,19.12-6.81,8.77-10.24,16.28-8.88,21.78,8.43,33.69,61.79,115.59,80.51,130.57,0,0,11.51,16.68,41.66,0,48.21-26.67,186.73-157.23,201.7-209.65,0,0-.93-10.3-19.65-28.08ZM406.87,766.37c-8.72,34.35-29.41,63.94-52.49,90.64-21.86,25.29-45.57,46.36-74.37,63.92-10.05,6.12-24.03,14.63-36.56,10.53-11.73-3.85-18.69-12.89-24.67-23.06-10.18-17.24-25.9-39.05-8.48-57.04,24.14-24.93,59.82-39.93,88.88-58.66,25.9-16.68,48.87-36.34,70.64-57.52,3.37-4.15,6.73-8.34,10.18-12.46,4.92-5.9,10.37-14.7,19.04-14.2,18.82,1.09,10,49.31,7.82,57.86Z" style="fill:#dfe2df; mix-blend-mode:multiply; stroke-width:0px;"/><path d="M466.69,736.26c-18.72-17.8-47.75-53.36-47.75-53.36,0,0-4.68-21.54-49.59-1.89-42.14,18.44-194.51,115.42-206.43,155.24,1.06.95,2.63,1.52,4.95,1.5,3.67-.04,7.31-.58,10.8-1.89,10.34-3.92,20.37-9.11,30.26-14.02,19.01-9.41,38.1-18.98,56.34-29.78,36.24-21.42,72.74-46.89,104.7-74.32,7.29-6.26,17.81-21.06,28.58-21.06,9.25.01,15.21,6.22,20.63,13.12,14.36,18.22,26.54,44.93,24.09,68.37-1.7,16.33-11.54,31.45-20.87,44.39-10.69,14.82-21.51,29.47-33.45,43.31-23.19,26.83-48.63,52.66-76.73,74.4-13.08,10.12-43.15,32.21-67.51,35.55,4.15,3.83,16.3,11.21,39.93-1.85,48.21-26.67,186.73-157.23,201.7-209.65,0,0-.93-10.3-19.65-28.08Z" style="fill:#dfe2df; mix-blend-mode:multiply; stroke-width:0px;"/><path d="M392.17,688.9c-21.88,31.7-63.15,56.07-93.43,78.97-34.11,25.79-77.58,49.78-117.92,64.59-1.06.39-3.48,4.17-1.6,3.67,42.19-11.11,84.36-36,119.48-61.38,32.2-23.27,74.69-50.21,94.6-85.7.74-1.32-.59-.95-1.14-.15Z" style="fill:#bec0c2; stroke-width:0px;"/><path d="M487.27,821.42s35.57,23.4,68.36,30.9c0,0-36.53,17.77-68.36-30.9Z" style="fill:#f9b4a9; opacity:.4; stroke-width:0px;"/><path d="M13.22,613.25c10.21,18.82,25.26,35.39,45.43,43.27,1,4.73.76,9.72,1.87,14.45,1.44,6.15,3.45,12.17,5.91,17.98,3.76,8.9,8.63,17.31,14.52,24.96,15.53,20.18,37.61,34.51,61.98,40.94,3.54,11.56,6.99,23.53,13.72,33.71,3.21,4.87,7.23,9.32,12.27,12.34,5.03,3.01,10.73,4.01,16.53,4.11,11.4.19,22.75-2.59,33.73-5.32,14.23-3.53,28.29-7.69,42.06-12.75,27.75-10.21,53.95-23.88,77.66-41.59,11.6-8.66,22.84-17.9,33.62-27.56,10.16-9.11,20.12-18.99,27.16-30.77,3.17-5.31,5.68-11.09,5.28-17.4-.36-5.83-3.11-11.22-6.5-15.86-3.05-4.18-6.71-7.65-10.26-11.38-2.61-2.74-7.86-7.49-7.25-11.77.01-.08-.06-.16-.06-.24.26-1.04.54-2.07.91-3.1.65-1.82,1.26-3.66,1.86-5.49.49-1.49.89-2.99,1.18-4.53,6.74-20.25,6.03-41.85.43-62.55-1.59-5.88-3.57-11.68-5.85-17.37-.48-3.6-.27-7.29-.71-10.9-.53-4.32-1.67-8.64-2.79-12.84-2.26-8.42-5.15-16.77-8.08-24.99-9.84-27.61-26.66-52.22-48.87-71.36-10.8-9.31-22.84-17.47-36-23.05-8.04-3.41-16.71-6.08-25.5-7.18-3.38-1.03-6.78-1.96-10.25-2.65-6.24-1.25-12.59-1.53-18.94-1.74-13.83-.45-27.69.11-41.41,1.9-23.2,3.02-45.91,9.29-67.27,18.85-20.05,8.98-38.84,20.68-55.6,34.9-16.53,14.04-31.71,30.56-43.18,49.02-23.1,37.15-28.88,86.72-7.59,125.95Z" style="fill:#9e0c0f; stroke-width:0px;"/><path d="M10.35,595.08c-6.61-20.38-6.67-42.54-1.91-63.33,4.86-21.27,14.85-40.22,28.24-57.32,26.17-33.42,61.84-58.89,101.7-73.36,22.84-8.29,46.84-12.9,71.1-14.11,10.45-.52,21.34-.85,31.87.31-.11.1-.08.25-.13.37,18.43,1.31,36.59,6.7,52.12,16.61,21.71,12.26,40.38,30.94,53.67,51.8,7.75,12.16,13.68,25.3,18.39,38.9,2.48,7.17,5.11,14.29,7.33,21.55,1.2,3.94,2.29,7.93,3,11.99.04.23.08.45.12.67-9.17-19.45-22.53-36.86-39.78-49.18.69-.09,1.39-.26,2.08-.45,1.4-.39,2.74-.96,4.1-1.45,1.43-.52,2.9-1.03,4.4-1.33,1.4-.29,2.99-.45,4.35.05,1.01.37,1.16-.84.3-1.2-1.58-.65-3.16-1.14-4.87-1.23-1.69-.09-3.37.11-5.03.45-1.61.33-3.23.7-4.82,1.12-.68.18-1.36.35-2.05.46-.65.11-1.56.11-2.03.85-.05.07-.04.16-.07.23-5.96-3.89-12.35-7.2-19.17-9.77.22-1.27.3-2.58.42-3.71.12-1.16.18-2.34.22-3.51,2.55.02,4.82-2.42,6.17-4.4,1.66-2.44,2.58-5.37,3.07-8.26.97-5.71.28-11.89-1.94-17.24-.27-.65-1.66-.95-1.38.02,1.4,4.93.9,10.53-.33,15.43-.65,2.57-1.67,5.02-3.22,7.19-.68.95-1.45,1.77-2.36,2.49-.07-5.21-.57-10.4-1.61-15.51-1.87-9.24-5.7-18.6-12.82-24.98,1.01,2.66,1.96,5.34,2.77,8.06,2.92,5.57,4.66,11.74,5.6,18.01.75,4.98,1.04,10.05,1.01,15.09-.01,2.34-.16,4.68-.21,7.02-.02.88-.08,1.78-.12,2.68-.35-.11-.69-.25-1.05-.36-38.54-11.83-80.73-.63-113.66,20.93-15.58,10.2-32.31,24.65-38.23,42.98-6.58,20.39,9.15,38.44,27.16,45.66,8.78,3.52,18.44,4.76,27.82,5.4,10.17.69,20.4.28,30.48-1.18,9.74-1.42,19.87-3.87,29.15-7.96.43.71,1.12,1.33,2,1.51,8.84,1.86,18.77.98,27.22-2.83,3.54-2.51,6.75-5.41,9.43-8.73-.18-.02-.37-.03-.5.05-5.58,3.45-11.16,6.27-17.68,7.45-5.21.94-10.36.82-15.53.16,6.81-3.58,13-8.16,17.98-14.09.11-.13.15-.28.19-.43-5.36,2.67-10.83,5.14-16.4,7.27-15.37,9.38-33.94,13.34-51.72,14.13-17.72.79-38.31-.3-52.91-11.51-7.18-5.51-12.6-13.6-12.94-22.84-.34-9.3,4.51-17.91,9.88-25.16,11.38-15.36,27.88-26.72,44.81-35.19,29.31-14.68,64.35-20.94,95.77-10.38.39.26.8.41,1.22.43,3.31,1.16,6.6,2.45,9.81,4.01,16.38,7.9,29.81,20.73,39.86,35.76,12.45,18.62,21.1,40.62,23.65,62.91,1.28,11.22.74,22.52-1.68,33.39-1.79,6.07-3.99,12.02-6.69,17.76-3.7,7.85-8.15,15.32-13.35,22.2-3.52,4.11-7.45,7.84-11.52,11.41-2.48,2.9-5.05,5.73-7.83,8.37-14.88,14.12-33.91,22.27-53.12,28.87.32.35.77.61,1.16.56,11.57-1.54,22.62-5.17,33.01-10.5,17.18-8.82,32.87-21.09,43.87-37.09,2.24-3.26,4.2-6.67,6-10.16,1.2-1.8,2.34-3.64,3.41-5.53.21.11.41.2.63.25.74,2.82,2.81,5.54,4.43,7.57,3.41,4.28,7.48,7.96,10.82,12.3,3.85,5,7.07,10.82,6.66,17.32-.46,7.3-5.04,14-9.24,19.72-7.94,10.84-17.92,20.01-28.08,28.73-10.58,9.07-21.41,17.9-32.73,26.03-23.28,16.72-49.09,29.46-76.09,38.97-12.9,4.54-26.05,8.28-39.33,11.55-10.7,2.63-21.88,5.31-32.98,4.61-21.58-1.35-28.31-26.88-33.52-44.34,6.85,1.47,13.86,2.35,20.93,2.53,20.15.51,40.65-4.58,58.85-13.05,9.86-4.59,20.13-9.84,28.91-16.7,4.11-4.33,7.73-9.09,10.5-14.31-6.29,6.48-14.12,11.7-21.87,16.12-8.73,4.99-17.7,9.68-27.06,13.4-17.93,7.13-37.48,11.06-56.8,9.46-16.1-1.34-32-6.34-45.92-14.55-13.81-8.15-25.73-19.33-34.61-32.69-4.86-7.32-8.79-15.19-11.74-23.47-1.71-4.79-3.5-9.85-4.23-14.9-.45-3.15-.53-6.34-1.06-9.46,11.17,3.65,22.68,6.2,34.43,7.02,12.62.89,25.13-.45,37.48-3.03,42.49-8.9,83.65-31.02,111.58-64.68-7.56,5.55-15.29,10.86-23.19,15.87-12.93,10.66-27.2,19.76-42.22,27.1-19.95,9.76-42.09,16.99-64.25,19.33-12.46,1.32-25.05.62-37.32-1.85-6-1.21-12.15-2.68-18.07-4.73-.86-1.01-2.49-1.57-3.54-1.3-4.14-1.64-8.13-3.62-11.81-6.06-17.5-11.59-30.41-31.32-36.81-51.08Z" style="fill:#fe0000; stroke-width:0px;"/><path d="M13.22,613.25c10.21,18.82,25.26,35.39,45.43,43.27,1,4.73.76,9.72,1.87,14.45,1.44,6.15,3.45,12.17,5.91,17.98,3.76,8.9,8.63,17.31,14.52,24.96,15.53,20.18,37.61,34.51,61.98,40.94,3.54,11.56,6.99,23.53,13.72,33.71,3.21,4.87,7.23,9.32,12.27,12.34,5.03,3.01,10.73,4.01,16.53,4.11,11.4.19,22.75-2.59,33.73-5.32,14.23-3.53,28.29-7.69,42.06-12.75,27.75-10.21,53.95-23.88,77.66-41.59,11.6-8.66,22.84-17.9,33.62-27.56,10.16-9.11,20.12-18.99,27.16-30.77,2.62-4.39,4.77-9.11,5.21-14.19-5.06,8.57-10.05,17.17-16.78,24.64-12.33,13.71-26.44,25.89-41.92,35.91-15.85,10.27-32.53,19.32-50.09,26.31-13.79,5.49-28.52,11.05-43.16,13.72-6.71,1.22-14.08,2-20.69-.15-4.02-1.31-9.66-3.96-9.58-8.97.07-4.48,4.66-7.65,8.05-9.74,4.65-2.88,9.75-5,14.79-7.08,7.81-3.23,15.33-7.36,22.92-11.09,9.14-4.49,18.25-9.05,27.19-13.93,15.34-8.39,30.27-17.71,43.73-28.92,18.32-15.25,34.28-33.72,45.51-54.69-2.22-2.5-4.29-5.47-3.89-8.24.01-.08-.06-.16-.06-.24.26-1.04.54-2.07.91-3.1.65-1.82,1.26-3.66,1.86-5.49.49-1.49.89-2.99,1.18-4.53,6.74-20.25,6.03-41.85.43-62.55-1.59-5.88-3.57-11.68-5.85-17.37-.48-3.6-.27-7.29-.71-10.9-.53-4.32-1.67-8.64-2.79-12.84-2.26-8.42-5.15-16.77-8.08-24.99-9.84-27.61-26.66-52.22-48.87-71.36-10.8-9.31-22.84-17.47-36-23.05-8.04-3.41-16.71-6.08-25.5-7.18-3.38-1.03-6.78-1.96-10.25-2.65-6.24-1.25-12.59-1.53-18.94-1.74-13.83-.45-27.69.11-41.41,1.9-23.2,3.02-45.91,9.29-67.27,18.85-20.05,8.98-38.84,20.68-55.6,34.9-16.53,14.04-31.71,30.56-43.18,49.02-23.1,37.15-28.88,86.72-7.59,125.95ZM225.89,682.64c-10.06-8.04-12.07-21.75-7.85-33.51,5.34-14.9,18.18-25.86,30.22-35.42,25.53-20.26,53.26-39.56,72.77-65.73-7.51,4.43-15.85,7.63-24.68,10.04-2.84.77-4.67-2.71-2.78-4.78,4.38-4.8,7.79-10.26,10.52-16.07-14.8,16.32-37.27,24.81-59.55,27.07-12.51,1.27-27.01,1.33-38.29-5.03-10.05-5.67-14.39-17.19-11.43-28.22,3.17-11.8,12.94-20.92,22.42-27.96,10.76-8,22.93-14.18,35.44-18.92,11.44-4.34,22.85-6.86,35.16-6,15.85,1.12,31.27,6.62,44.59,15.22,19.99,12.91,35.43,33.09,40.63,55.72.94.17,1.81.73,2.19,1.89,18.87,57.64-19.6,127.23-79.63,139.13-12.28,2.44-25,3.54-37.5,2.69-11.16-.76-23.29-2.96-32.25-10.13ZM137.41,691.54c14.15-12.04,35.81-14.54,53.67-13.28,14.1.99,33.96,5.26,42.75,17.9,9.4,4.65,5.81,19.09-1.68,25.61-8.51,7.41-20.39,11.52-31.26,14.01-9.21,2.11-18.83,2.99-28.28,2.86-10.07-.14-20.65-1.38-29.78-5.91-8.07-4.01-13.77-11.09-14.57-20.21-.72-8.2,2.96-15.71,9.15-20.98ZM27.95,515.62c8.59-22.77,22.91-43.43,41.17-59.51,10.94-9.63,23.05-17.56,35.49-25.02,19.95-16.11,43.06-28.19,68.94-34.3,22.35-5.27,46.58-6.71,68.72.32,10.62,3.38,20.52,8.73,28.97,16.02,4.23,3.65,8.32,7.72,11.53,12.31,2.16,3.1,4.15,7.14,3.06,11-1.19,4.21-5.44,6.32-9.34,7.42-6.68,1.88-13.93,2.25-20.77,3.41-13.15,2.24-26.24,5.22-38.61,10.32-19,7.83-35.63,20.55-49.38,35.71-13.64,15.03-33.83,36.38-24.59,58.6,2.8,6.74,8.14,12.18,14.19,16.27,12.44,8.43,56.95,22.41,38.03,44.5-8.09,9.44-21.29,14.5-32.22,19.82-27.5,13.4-61.62,18.32-89.8,4.3-2.95-.34-5.9-.9-8.82-1.75-21.49-6.26-37.03-26.57-42.41-47.66-5.94-23.29-2.54-49.53,5.85-71.79Z" style="fill:#c2171c; mix-blend-mode:multiply; stroke-width:0px;"/><path d="M376,625.25c-3.7,7.85-8.15,15.32-13.35,22.2-2.41,2.81-5.05,5.41-7.76,7.94,2.1-2.79,4.1-5.66,5.96-8.63,13.48-21.42,20.43-47.12,18.24-72.43-2.19-25.25-13.15-48.05-30.91-66.03-23.99-24.3-59.2-40.47-93.87-40.52,18.53-3.35,37.61-2.81,55.51,3.21.39.26.8.41,1.22.43,3.31,1.16,6.6,2.45,9.81,4.01,16.38,7.9,29.81,20.73,39.86,35.76,12.45,18.62,21.1,40.62,23.65,62.91,1.28,11.22.74,22.52-1.68,33.39-1.79,6.07-3.99,12.02-6.69,17.76Z" style="fill:#fac7c6; mix-blend-mode:screen; stroke-width:0px;"/><path d="M113.87,441.22c30.41-18.55,65.73-30.05,101.45-30.78-6.64,2.61-13.59,4.54-20.45,6.41-11.22,3.06-22.1,6.14-32.74,10.9-37.75,16.86-72.09,43.03-97.99,75.3-16.38,20.41-30.94,44.94-35.88,71.02.34-14.72,3.07-29.33,8.15-43.27,13.83-37.93,43.39-68.79,77.45-89.57Z" style="fill:#fac7c6; mix-blend-mode:screen; stroke-width:0px;"/><path d="M191.39,711.89c1.06,3.14,3.3,5.67,5.9,7.64,4,3.03,9.36,4.55,14.34,4.65,3.87.08,8.69-1.01,11.68-3.61,1.72-1.49,3.06-3.25,3.58-5.51.67-2.88.08-6.13-1.41-8.66-.57-.98-1.34-1.86-2.22-2.62-1.67-2.44-4.1-4.32-6.73-5.61-4.48-2.19-9.87-2.27-14.63-1.06-3.62.92-8.06,3.06-9.85,6.56-1.35,2.63-1.62,5.36-.66,8.22Z" style="fill:#fac7c6; mix-blend-mode:screen; stroke-width:0px;"/><path d="M144.45,590.99c.79-2.21,2.08-4.09,4.05-5.43,1.06-.73,2.31-1.25,3.51-1.7.85-.32,1.74-.54,2.64-.7,3.09-.55,6.03-.77,9.14-.22,2.97.53,5.63,1.82,8.19,3.34.69.41,1.34.86,1.95,1.37,1.12.93,2.29,1.87,3.24,2.99,1.69,2.01,3.32,4.27,4.01,6.85.58,2.2.9,4.68,0,6.84-.48,1.15-.92,2.17-1.77,3.06-.92.97-1.84,1.87-3.02,2.5-2.39,1.28-4.7,2.07-7.42,2.2-.62.03-1.25-.05-1.87-.08-1.05.26-2.13.42-3.24.35-2.07-.14-3.72-.49-5.68-1.17-1.5-.52-2.88-1.36-4.25-2.16-2.06-1.2-4-2.8-5.52-4.65-1.62-1.98-3.2-4.15-3.86-6.67-.28-1.08-.59-2.28-.56-3.43.03-1.07.08-2.24.45-3.27Z" style="fill:#fac7c6; mix-blend-mode:screen; stroke-width:0px;"/><path d="M139.51,570.75c5.01,0,9.7,8.91,3.05,8.91-5.01,0-9.7-8.91-3.05-8.91Z" style="fill:#fac7c6; mix-blend-mode:screen; stroke-width:0px;"/><path d="M308.19,743.56c2.43-4.39,6.73-7.15,10.72-9.99,4.54-3.23,8.56-6.69,12.58-10.54,7.82-7.5,16.11-14.39,24.36-21.39,13.16-11.17,25.88-22.82,33.53-38.55.7-1.44,3.12.1,3.41,1.12,2.27,8.05-1.55,16.58-6.13,23.15-5.53,7.94-12.73,14.77-19.93,21.18-7.9,7.03-15.73,14.34-24.59,20.15-9.87,6.48-20.44,12.1-30.94,17.46-1.45.74-3.94-.9-3.01-2.59Z" style="fill:#fac7c6; mix-blend-mode:screen; stroke-width:0px;"/><path d="M1995.26,487.31c-11.48-18.46-26.65-34.98-43.18-49.02-16.75-14.22-35.54-25.93-55.6-34.9-21.36-9.56-44.07-15.83-67.27-18.85-13.72-1.79-27.58-2.35-41.41-1.9-6.35.21-12.7.49-18.94,1.74-3.47.69-6.87,1.62-10.25,2.65-8.79,1.1-17.47,3.77-25.5,7.18-13.16,5.58-25.2,13.75-36.01,23.05-22.21,19.14-39.03,43.75-48.87,71.36-2.93,8.21-5.81,16.57-8.07,24.99-1.13,4.2-2.26,8.52-2.79,12.84-.45,3.61-.23,7.3-.72,10.9-2.28,5.69-4.26,11.49-5.85,17.37-5.59,20.7-6.31,42.3.43,62.55.29,1.53.7,3.04,1.18,4.53.6,1.83,1.21,3.67,1.86,5.49.36,1.03.65,2.06.91,3.1,0,.08-.08.16-.06.24.61,4.28-4.64,9.03-7.25,11.77-3.55,3.73-7.21,7.2-10.26,11.38-3.39,4.65-6.13,10.03-6.5,15.86-.4,6.31,2.11,12.09,5.28,17.4,7.05,11.79,17,21.67,27.16,30.77,10.78,9.66,22.02,18.9,33.62,27.56,23.71,17.71,49.9,31.38,77.66,41.59,13.76,5.06,27.83,9.21,42.06,12.75,10.99,2.73,22.34,5.52,33.73,5.32,5.8-.1,11.5-1.09,16.53-4.11,5.04-3.02,9.05-7.48,12.26-12.34,6.72-10.19,10.18-22.15,13.72-33.71,24.37-6.43,46.45-20.77,61.98-40.94,5.89-7.66,10.75-16.07,14.52-24.96,2.46-5.81,4.47-11.84,5.91-17.98,1.11-4.73.87-9.72,1.87-14.45,20.16-7.88,35.21-24.45,45.43-43.27,21.29-39.23,15.5-88.8-7.59-125.95Z" style="fill:#9e0c0f; stroke-width:0px;"/><path d="M1968.91,646.16c-3.68,2.44-7.66,4.41-11.81,6.06-1.05-.28-2.68.28-3.54,1.3-5.92,2.05-12.07,3.53-18.07,4.73-12.27,2.47-24.86,3.16-37.32,1.85-22.15-2.34-44.29-9.57-64.25-19.33-15.01-7.34-29.28-16.44-42.21-27.1-7.9-5.01-15.62-10.31-23.19-15.87,27.93,33.66,69.09,55.78,111.58,64.68,12.35,2.59,24.86,3.92,37.48,3.03,11.75-.82,23.25-3.37,34.43-7.02-.53,3.12-.61,6.31-1.06,9.46-.73,5.04-2.52,10.11-4.23,14.9-2.96,8.27-6.88,16.15-11.74,23.47-8.88,13.36-20.8,24.54-34.61,32.69-13.92,8.22-29.82,13.21-45.92,14.55-19.32,1.61-38.88-2.33-56.8-9.46-9.35-3.72-18.32-8.41-27.06-13.4-7.74-4.43-15.58-9.65-21.87-16.12,2.77,5.21,6.39,9.98,10.5,14.31,8.79,6.86,19.06,12.11,28.91,16.7,18.2,8.47,38.7,13.56,58.85,13.05,7.07-.18,14.07-1.06,20.93-2.53-5.21,17.46-11.95,42.99-33.52,44.34-11.1.69-22.28-1.98-32.98-4.61-13.28-3.27-26.43-7-39.33-11.55-27.01-9.51-52.81-22.24-76.09-38.97-11.33-8.13-22.15-16.96-32.73-26.03-10.16-8.71-20.14-17.89-28.08-28.73-4.19-5.72-8.77-12.42-9.24-19.72-.41-6.5,2.81-12.33,6.66-17.32,3.34-4.33,7.41-8.02,10.82-12.3,1.62-2.03,3.68-4.76,4.43-7.57.22-.05.42-.14.63-.25,1.07,1.89,2.21,3.73,3.41,5.53,1.8,3.48,3.75,6.89,6,10.16,11,16,26.69,28.27,43.86,37.09,10.38,5.33,21.44,8.96,33.01,10.5.39.05.84-.2,1.16-.56-19.21-6.6-38.24-14.75-53.12-28.87-2.78-2.64-5.35-5.47-7.83-8.37-4.07-3.58-8-7.31-11.52-11.41-5.2-6.88-9.65-14.34-13.35-22.2-2.7-5.74-4.91-11.68-6.69-17.76-2.42-10.87-2.96-22.16-1.68-33.39,2.55-22.29,11.2-44.3,23.65-62.91,10.05-15.03,23.49-27.86,39.86-35.76,3.22-1.55,6.5-2.84,9.81-4.01.42-.02.83-.18,1.23-.43,31.42-10.56,66.46-4.3,95.77,10.38,16.93,8.48,33.43,19.83,44.81,35.19,5.37,7.25,10.22,15.87,9.88,25.16-.34,9.25-5.76,17.33-12.94,22.84-14.6,11.21-35.19,12.3-52.91,11.51-17.79-.79-36.36-4.75-51.72-14.13-5.58-2.13-11.04-4.6-16.4-7.27.05.15.08.3.19.43,4.98,5.93,11.17,10.51,17.98,14.09-5.17.66-10.32.79-15.53-.16-6.52-1.18-12.1-4-17.68-7.45-.14-.08-.32-.07-.5-.05,2.68,3.31,5.89,6.21,9.43,8.73,8.44,3.81,18.37,4.69,27.22,2.83.88-.18,1.57-.81,2-1.51,9.28,4.08,19.41,6.54,29.15,7.96,10.08,1.47,20.32,1.88,30.48,1.18,9.38-.64,19.05-1.88,27.82-5.4,18-7.22,33.74-25.27,27.15-45.66-5.92-18.33-22.64-32.78-38.23-42.98-32.93-21.55-75.13-32.76-113.66-20.93-.35.11-.69.24-1.05.36-.04-.9-.1-1.81-.12-2.68-.05-2.34-.19-4.68-.21-7.02-.03-5.03.26-10.11,1.01-15.09.94-6.27,2.68-12.45,5.6-18.01.81-2.72,1.76-5.4,2.77-8.06-7.12,6.38-10.95,15.74-12.82,24.98-1.04,5.12-1.54,10.3-1.61,15.51-.91-.72-1.68-1.55-2.36-2.49-1.55-2.16-2.57-4.61-3.22-7.19-1.24-4.9-1.73-10.51-.33-15.43.28-.97-1.11-.67-1.38-.02-2.22,5.35-2.9,11.53-1.94,17.24.49,2.88,1.4,5.82,3.06,8.26,1.35,1.98,3.62,4.42,6.17,4.4.04,1.18.1,2.35.22,3.51.12,1.13.2,2.44.42,3.71-6.82,2.57-13.21,5.88-19.17,9.77-.03-.08-.02-.16-.07-.23-.47-.74-1.37-.74-2.03-.85-.69-.11-1.37-.28-2.05-.46-1.59-.42-3.2-.8-4.82-1.12-1.65-.34-3.34-.54-5.02-.45-1.71.09-3.29.58-4.87,1.23-.86.35-.71,1.57.31,1.2,1.35-.5,2.94-.34,4.35-.05,1.49.31,2.96.82,4.4,1.33,1.36.49,2.7,1.07,4.1,1.45.69.19,1.39.36,2.08.45-17.24,12.32-30.61,29.73-39.78,49.18.04-.22.08-.45.12-.67.71-4.06,1.8-8.06,3-11.99,2.22-7.25,4.85-14.38,7.33-21.55,4.71-13.6,10.64-26.74,18.39-38.9,13.29-20.86,31.96-39.54,53.67-51.8,15.53-9.92,33.69-15.31,52.12-16.61-.05-.12-.02-.27-.13-.37,10.53-1.17,21.42-.84,31.87-.31,24.26,1.21,48.25,5.82,71.1,14.11,39.86,14.47,75.53,39.94,101.7,73.36,13.39,17.1,23.38,36.05,28.24,57.32,4.75,20.79,4.69,42.95-1.91,63.33-6.4,19.76-19.31,39.49-36.81,51.08Z" style="fill:#fe0000; stroke-width:0px;"/><path d="M1995.26,487.31c-11.48-18.46-26.65-34.98-43.18-49.02-16.75-14.22-35.54-25.93-55.6-34.9-21.36-9.56-44.07-15.83-67.27-18.85-13.72-1.79-27.58-2.35-41.41-1.9-6.35.21-12.7.49-18.94,1.74-3.47.69-6.87,1.62-10.25,2.65-8.79,1.1-17.47,3.77-25.5,7.18-13.16,5.58-25.2,13.75-36.01,23.05-22.21,19.14-39.03,43.75-48.87,71.36-2.93,8.21-5.81,16.57-8.07,24.99-1.13,4.2-2.26,8.52-2.79,12.84-.45,3.61-.23,7.3-.72,10.9-2.28,5.69-4.26,11.49-5.85,17.37-5.59,20.7-6.31,42.3.43,62.55.29,1.53.7,3.04,1.18,4.53.6,1.83,1.21,3.67,1.86,5.49.36,1.03.65,2.06.91,3.1,0,.08-.08.16-.06.24.4,2.78-1.68,5.74-3.89,8.24,11.23,20.97,27.19,39.44,45.51,54.69,13.46,11.2,28.39,20.53,43.73,28.92,8.94,4.89,18.05,9.44,27.19,13.93,7.59,3.73,15.1,7.86,22.91,11.09,5.04,2.08,10.14,4.2,14.79,7.08,3.39,2.1,7.98,5.26,8.05,9.74.07,5.01-5.56,7.66-9.58,8.97-6.61,2.15-13.98,1.38-20.69.15-14.64-2.67-29.37-8.23-43.16-13.72-17.56-6.99-34.24-16.04-50.09-26.31-15.48-10.03-29.59-22.2-41.92-35.91-6.72-7.48-11.72-16.07-16.78-24.64.45,5.07,2.59,9.8,5.21,14.19,7.05,11.79,17,21.67,27.16,30.77,10.78,9.66,22.02,18.9,33.62,27.56,23.71,17.71,49.9,31.38,77.66,41.59,13.76,5.06,27.83,9.21,42.06,12.75,10.99,2.73,22.34,5.52,33.73,5.32,5.8-.1,11.5-1.09,16.53-4.11,5.04-3.02,9.05-7.48,12.26-12.34,6.72-10.19,10.18-22.15,13.72-33.71,24.37-6.43,46.45-20.77,61.98-40.94,5.89-7.66,10.75-16.07,14.52-24.96,2.46-5.81,4.47-11.84,5.91-17.98,1.11-4.73.87-9.72,1.87-14.45,20.16-7.88,35.21-24.45,45.43-43.27,21.29-39.23,15.5-88.8-7.59-125.95ZM1757.94,692.77c-12.5.85-25.22-.26-37.5-2.69-60.03-11.91-98.5-81.49-79.63-139.13.38-1.16,1.25-1.72,2.19-1.89,5.2-22.63,20.64-42.81,40.63-55.72,13.32-8.6,28.74-14.1,44.59-15.22,12.31-.87,23.72,1.66,35.17,6,12.51,4.75,24.68,10.93,35.44,18.92,9.48,7.04,19.25,16.16,22.42,27.96,2.96,11.03-1.37,22.56-11.43,28.22-11.28,6.36-25.79,6.3-38.29,5.03-22.28-2.27-44.75-10.76-59.55-27.07,2.73,5.81,6.14,11.28,10.52,16.07,1.89,2.07.06,5.55-2.78,4.78-8.83-2.4-17.16-5.61-24.68-10.04,19.52,26.17,47.24,45.47,72.77,65.73,12.04,9.55,24.87,20.51,30.22,35.42,4.22,11.77,2.21,25.47-7.85,33.51-8.96,7.17-21.09,9.37-32.25,10.13ZM1887.82,712.52c-.8,9.12-6.5,16.21-14.57,20.21-9.12,4.53-19.71,5.78-29.78,5.91-9.44.13-19.06-.75-28.27-2.86-10.87-2.49-22.75-6.61-31.26-14.01-7.49-6.52-11.09-20.96-1.68-25.61,8.79-12.64,28.65-16.91,42.75-17.9,17.86-1.26,39.51,1.24,53.67,13.28,6.19,5.27,9.87,12.77,9.15,20.98ZM1993.98,587.4c-5.38,21.1-20.92,41.41-42.42,47.66-2.92.85-5.86,1.4-8.82,1.75-28.18,14.02-62.31,9.1-89.8-4.3-10.92-5.32-24.13-10.37-32.22-19.82-18.92-22.09,25.59-36.07,38.03-44.5,6.04-4.1,11.39-9.53,14.19-16.27,9.24-22.22-10.95-43.57-24.59-58.6-13.76-15.15-30.38-27.88-49.38-35.71-12.37-5.09-25.46-8.08-38.61-10.32-6.84-1.16-14.09-1.53-20.76-3.41-3.9-1.1-8.15-3.21-9.34-7.42-1.09-3.87.9-7.91,3.06-11,3.2-4.59,7.3-8.67,11.53-12.31,8.45-7.29,18.35-12.65,28.97-16.02,22.14-7.04,46.37-5.6,68.72-.32,25.88,6.11,48.99,18.19,68.94,34.3,12.44,7.45,24.55,15.38,35.49,25.02,18.26,16.08,32.58,36.74,41.17,59.51,8.39,22.25,11.8,48.5,5.85,71.79Z" style="fill:#c2171c; mix-blend-mode:multiply; stroke-width:0px;"/><path d="M1640.07,625.25c3.7,7.85,8.15,15.32,13.35,22.2,2.41,2.81,5.05,5.41,7.76,7.94-2.1-2.79-4.1-5.66-5.96-8.63-13.47-21.42-20.43-47.12-18.24-72.43,2.19-25.25,13.15-48.05,30.91-66.03,23.99-24.3,59.2-40.47,93.87-40.52-18.53-3.35-37.61-2.81-55.51,3.21-.39.26-.8.41-1.23.43-3.31,1.16-6.6,2.45-9.81,4.01-16.38,7.9-29.81,20.73-39.86,35.76-12.45,18.62-21.1,40.62-23.65,62.91-1.28,11.22-.74,22.52,1.68,33.39,1.79,6.07,3.99,12.02,6.69,17.76Z" style="fill:#fac7c6; mix-blend-mode:screen; stroke-width:0px;"/><path d="M1902.21,441.22c-30.41-18.55-65.73-30.05-101.45-30.78,6.64,2.61,13.59,4.54,20.45,6.41,11.22,3.06,22.1,6.14,32.74,10.9,37.75,16.86,72.09,43.03,97.99,75.3,16.38,20.41,30.94,44.94,35.88,71.02-.34-14.72-3.07-29.33-8.15-43.27-13.83-37.93-43.39-68.79-77.45-89.57Z" style="fill:#fac7c6; mix-blend-mode:screen; stroke-width:0px;"/><path d="M1824.03,703.67c-1.8-3.5-6.23-5.63-9.85-6.56-4.76-1.21-10.16-1.14-14.63,1.06-2.63,1.29-5.07,3.17-6.73,5.61-.88.76-1.65,1.64-2.22,2.62-1.48,2.53-2.08,5.78-1.41,8.66.52,2.26,1.87,4.02,3.58,5.51,2.99,2.6,7.81,3.68,11.68,3.61,4.98-.1,10.34-1.62,14.34-4.65,2.6-1.97,4.84-4.5,5.9-7.64.97-2.85.7-5.58-.66-8.22Z" style="fill:#fac7c6; mix-blend-mode:screen; stroke-width:0px;"/><path d="M1871.63,590.99c-.79-2.21-2.08-4.09-4.05-5.43-1.06-.73-2.31-1.25-3.51-1.7-.85-.32-1.74-.54-2.64-.7-3.09-.55-6.03-.77-9.14-.22-2.97.53-5.63,1.82-8.19,3.34-.69.41-1.34.86-1.95,1.37-1.12.93-2.29,1.87-3.24,2.99-1.69,2.01-3.32,4.27-4.01,6.85-.58,2.2-.9,4.68,0,6.84.48,1.15.92,2.17,1.77,3.06.92.97,1.84,1.87,3.02,2.5,2.39,1.28,4.7,2.07,7.42,2.2.62.03,1.25-.05,1.87-.08,1.05.26,2.13.42,3.23.35,2.07-.14,3.72-.49,5.68-1.17,1.5-.52,2.88-1.36,4.25-2.16,2.06-1.2,4.01-2.8,5.52-4.65,1.62-1.98,3.2-4.15,3.86-6.67.28-1.08.59-2.28.56-3.43-.03-1.07-.08-2.24-.45-3.27Z" style="fill:#fac7c6; mix-blend-mode:screen; stroke-width:0px;"/><path d="M1876.57,570.75c-5.01,0-9.7,8.91-3.05,8.91,5.01,0,9.7-8.91,3.05-8.91Z" style="fill:#fac7c6; mix-blend-mode:screen; stroke-width:0px;"/><path d="M1707.89,743.56c-2.43-4.39-6.73-7.15-10.72-9.99-4.54-3.23-8.55-6.69-12.58-10.54-7.82-7.5-16.11-14.39-24.36-21.39-13.16-11.17-25.88-22.82-33.53-38.55-.7-1.44-3.12.1-3.41,1.12-2.27,8.05,1.55,16.58,6.13,23.15,5.53,7.94,12.73,14.77,19.92,21.18,7.9,7.03,15.73,14.34,24.59,20.15,9.87,6.48,20.44,12.1,30.94,17.46,1.45.74,3.94-.9,3.01-2.59Z" style="fill:#fac7c6; mix-blend-mode:screen; stroke-width:0px;"/></g><g id="uuid-03a7bed3-e360-410f-a662-59ce02c630e6"><path d="M590.37,509.83s-137.27-228.61,201.21-442.96c0,0,191.91-120.73,387.7-37.73,323.33,137.06,252.93,488.92,374.43,582.56,0,0-219,82.85-374.59-120.34-155.56-203.18-588.76,18.46-588.76,18.46Z" style="fill:#fe0000; stroke-width:0px;"/><path d="M1402.86,238.95c-1.75,8.17-4.39,15.86-7.68,22.48-12.07,24.12-40.04,38.82-62.59,17.4-18.98-18.04-29.86-43.31-42.41-65.83-16.67-29.97-43.34-53.83-72.08-72.15-61.15-38.91-135.09-56.99-207.2-57.4-139.21-.77-287.01,54.56-382.22,158.08-2.05,2.24-6.09.54-4.89-2.65,7.1-19.17,16.3-38.67,27.81-56.33-153.49,173.55-61.23,327.29-61.23,327.29,0,0,433.19-221.65,588.76-18.46,155.59,203.19,374.59,120.34,374.59,120.34-77.69-59.9-76.92-225.37-150.86-372.75Z" style="fill:#cc191e; mix-blend-mode:multiply; stroke-width:0px;"/><path d="M1514.24,561.98c-35.1,7.95-75.19-.64-108-13.22-25.74-9.87-61.5-25.68-69.18-55.26-7.92-30.55,4.07-64.53,15.39-92.66,10.42-25.82,23.42-50.42,34.72-75.81-11.94,10.53-24.67,20.17-35.49,31.91-1.36,1.45-3.94,1.64-4.84-.48-6.81-15.91-16.38-30.19-22.47-46.64-6.7-18.08-12.71-36.24-23.98-52.12-24.41-34.42-54.59-66.17-87.34-92.77-55.99-45.44-129.53-55.89-199.62-52.26-153.97,7.96-311.26,60.77-418.38,175.6-1.49,1.61-4.76,1.54-5.05-1.18-.37-3.8-.45-7.54-.4-11.25-60.52,131.82.77,234,.77,234,0,0,433.19-221.65,588.76-18.46,155.59,203.19,374.59,120.34,374.59,120.34-16.09-12.4-28.77-29.37-39.48-49.72Z" style="fill:#cc191e; mix-blend-mode:multiply; stroke-width:0px;"/><path d="M1586,584.76c-3.78-6.69-9.07-8.99-14.68-8.68-.51-5.56-2.61-10.85-7.1-14.67-9.44-7.92-21.24-7.97-31.53-2.05-2.42-1.49-5.05-2.82-8.22-3.74-12.34-3.64-25.66,6.27-31.96,15.91-5.95,9.14-5.21,20.39.51,29.06-6.73,7.43-11.3,17.42-12.28,26.2-1.43,12.75,7.42,23.7,20.05,25.62,7.63,1.16,14.2.29,19.91-2.51,5.42,8.15,15.61,12.18,26.43,9.76,11.43-2.57,21.86-14.47,24.89-27.49,6.22-3.89,11.38-9.67,14.44-16.13,4.84-10.33,5.24-21.22-.45-31.29Z" style="fill:#d3d3d3; stroke-width:0px;"/><path d="M1562.92,587.39c-2.63-4.67-6.33-6.26-10.21-6.05-.37-3.86-1.84-7.55-4.97-10.2-6.57-5.52-14.75-5.54-21.91-1.44-1.7-1.04-3.53-1.96-5.74-2.61-8.59-2.52-17.87,4.37-22.23,11.09-4.15,6.35-3.62,14.2.35,20.23-4.68,5.18-7.87,12.12-8.56,18.23-.98,8.87,5.16,16.5,13.96,17.83,5.29.81,9.92.21,13.85-1.76,3.8,5.68,10.26,9.34,17.76,7.65,8-1.8,15.85-10.92,17.97-19.99,4.31-2.69,7.92-6.73,10.05-11.23,3.38-7.18,3.64-14.76-.32-21.77Z" style="fill:#eff2ee; stroke-width:0px;"/><path d="M1195.69,554.69s5.29-54.52,67.69-58.39c62.4-3.87,67.16,172.74-28.53,175.24-38.68,1-39.16-116.85-39.16-116.85Z" style="fill:#fed1b4; stroke-width:0px;"/><path d="M1263.38,496.29c-62.4,3.88-67.69,58.39-67.69,58.39,0,0,.48,117.85,39.16,116.85,95.69-2.5,90.93-179.11,28.53-175.24ZM1275.83,604.03c-16.51-10.51-17.95-30.24-13.45-47.5-6.57,5.03-11.03,11.75-13.85,20.05-.72,2.15-4.41,2.53-5.16.18-6.03-19.2-3.16-41.97,17.2-50.7,3.75-1.61,7.31-2.31,10.61-2.31,5.21-1.14,10.56-.49,15.34,3.19,15.77,12.14,14.57,35.95,10.96,53.58-1.7,8.15-8.16,32.09-21.64,23.5Z" style="fill:#fed1b4; mix-blend-mode:multiply; stroke-width:0px;"/><path d="M694.06,591.88s4.33,36.03-32.92,42.12c-37.3,6.08-127.78-107.73-122.3-186.69,5.5-78.95,86.54-230.85,320.65-295.63,233.33-64.58,418.12,42.53,458.61,178.26,40.52,135.73-38.74,194.05-78.49,194.41-39.72.36-1.62-172.67-211.51-164.48-209.86,8.21-349.07,121.21-334.05,232Z" style="fill:#eff2ee; stroke-width:0px;"/><path d="M1318.1,329.95c-18.21-61.09-65.75-116.32-133.71-152.76,5.34,7.5,8.14,16.45,5.98,26.45-5.29,24.46-29.22,24.57-49.51,19.54-39.8-9.85-78.54-18.96-119.78-20.01-43.74-1.13-87.63,3.61-129.96,14.76-74.29,19.6-147.75,52.69-204.06,106.02-29.01,27.46-55.22,60.22-72.69,96.31-9.2,18.96-17.42,39.69-19.76,60.79-2.37,21,1.17,41.9.66,62.92-.05,1.99-2.92,3.39-4.44,1.99-54.4-50.7-44.96-142.99-11.51-202.64,7.07-12.65,14.92-24.77,23.32-36.46-42.51,51.86-61.26,103.96-63.81,140.46-5.48,78.96,85,192.76,122.3,186.69,37.25-6.09,32.92-42.12,32.92-42.12-15.02-110.8,124.19-223.79,334.05-232,209.88-8.2,171.78,164.84,211.51,164.48,39.75-.36,119-58.68,78.49-194.41Z" style="fill:#dfe2df; mix-blend-mode:multiply; stroke-width:0px;"/><path d="M1318.1,329.95c-4.89-16.42-11.96-32.39-20.95-47.72,5.77,30.09,4.23,63.53-18.56,86.59-1.01,1.01-3.14.78-3.96-.38-23.56-33.58-47.8-63.71-84.2-84.17-35.84-20.14-75.67-32.09-116.19-38.43-73.86-11.55-150.25-6.75-222.01,14.56-72.37,21.48-141.95,59.56-188.9,120.04-46.63,60.12-71.97,139.36-34.75,210.65,1.12,2.17-1.36,4.77-3.56,3.79-18.45-8.12-34.16-19.01-47.59-32,27.71,42.49,63.52,74.42,83.72,71.13,37.25-6.09,32.92-42.12,32.92-42.12-15.02-110.8,124.19-223.79,334.05-232,209.88-8.2,171.78,164.84,211.51,164.48,39.75-.36,119-58.68,78.49-194.41Z" style="fill:#dfe2df; mix-blend-mode:multiply; stroke-width:0px;"/><path d="M572.29,379.1s114.67-268.11,512.16-232.42c0,0-353.38-21.09-512.16,232.42Z" style="fill:#fff; stroke-width:0px;"/><path d="M747.58,627.93s-19.46-51.2-80.69-38.49c-61.2,12.7-19.25,184.33,73.7,161.52,37.6-9.23,6.99-123.03,6.99-123.03Z" style="fill:#fed1b4; stroke-width:0px;"/><path d="M747.58,627.93s-19.46-51.2-80.69-38.49c-61.2,12.7-19.25,184.33,73.7,161.52,37.6-9.23,6.99-123.03,6.99-123.03ZM696.99,670.3c.69,16.14-24.03,20.76-27.44-12.21-5.53,18.44,12.71,49.58,10.4,49.63-19.41.38-25.71-17.33-30.47-33.01-5.29-17.42-9.7-51.97,15.69-55.72,23.29-3.45,31.16,35.57,31.82,51.31Z" style="fill:#fed1b4; mix-blend-mode:multiply; stroke-width:0px;"/><path d="M1212.95,598.7c-8.32-21.53-24.62-38.44-31.13-64.02-10.32-40.44-18.37-108.97-47.86-141.08-23.42-25.5-57.3-35.24-90.72-38.74-71.84-7.51-158.62.76-220.68,40.49-28.45,18.24-56.05,39.73-75.54,67.74-20.71,29.78-22.6,69.14-18,104.12,3.91,29.85,14.14,59.49,13.61,89.82-.56,31.82-15.18,61.71-2.13,93.17,28.61,68.9,119.01,87.73,185.1,83.44,20.31-1.32,41-4.66,60.78-9.49,84.79-20.75,173.8-60.28,218.42-139.77,12.95-23.12,17.92-60.33,8.14-85.67Z" style="fill:#fed1b4; stroke-width:0px;"/><path d="M1212.95,598.7c-8.32-21.53-24.62-38.44-31.13-64.02-10.32-40.44-18.37-108.97-47.86-141.08-23.42-25.5-57.3-35.24-90.72-38.74-71.84-7.51-158.62.76-220.68,40.49-28.45,18.24-56.05,39.73-75.54,67.74-20.71,29.78-22.6,69.14-18,104.12,3.91,29.85,14.14,59.49,13.61,89.82-.56,31.82-15.18,61.71-2.13,93.17,28.61,68.9,119.01,87.73,185.1,83.44,20.31-1.32,41-4.66,60.78-9.49,84.79-20.75,173.8-60.28,218.42-139.77,12.95-23.12,17.92-60.33,8.14-85.67ZM1037.47,628.56c-.32,1.26-.8,2.42-1.19,3.61-.85,3.64-2.55,7.07-4.92,10.07-14.78,22.26-48.01,28.02-73.38,28.79-15.24.47-63.73.25-54.24-27.46,10.66-31.11,55.54-41,84.34-41.93,13.08-.41,36.03-2.79,44.64,10.08,2.98,4.45,4.39,9.5,4.36,14.48.43.65.61,1.45.4,2.35ZM1157.91,548.73c.16,17.91-6.2,41.99-16.83,56.55-.16.22-.32.42-.48.62-13.19,17.71-34.59,28.87-54.11,38.09-6.99,3.28-36.82,18.83-42.57,6.26-5.34-11.66,4.12-32.89,10.82-42.27,16.43-23.04,43.04-34.75,70.32-40.16-7.6-6.43-15.9-11.3-26.77-11.66-2.98-.11,19.91-13.45,29.67-18.85,9.09-5.06,3.24-22.54,1.2-29.92-.11-.38-.24-.74-.35-1.1-.19-.33-.32-.72-.4-1.18,0-.08-.03-.16-.03-.25-2.42-8.01-5.5-15.65-9.12-23.04-3.19-4.95-6.78-9.7-10.16-14.6-12.15-12.44-24.75-27.81-42.2-29.28-18.51-1.58-40.47,2.96-57.4,13.24-13.82,12.81-28.37,30.12-28.79,27.75-.88-5.03-1.78-9.99-2.45-14.96-15.42,42.05,12.6,104.76,3.94,114.29-13.67,15.03-42.67,20.25-51.56,3.66-1.06-1.96-11.57-59.56-15.82-71.89-.93-2.77-1.94-5.24-3.03-7.56.05,3.38-5.13,12.95-6.35,11.27-21.48-29.76-58.79-47.28-93.43-26.64-34.43,20.5-50.04,52.16-40.31,101.39.4,2.03,2.76,16.75,6.43,15.17,2.61-1.14,5.26-2.41,8.11-2.97,5.53-1.12,18.96,2.33,17.6,4.16-1.2,1.65-7.74,11.13-12.15,18.68,24.67-10.78,58.79-8.98,80.88,5.72,11.54,7.67,22.49,20.72,24.12,34.22,1.33,5.92,1.2,12.2-1.7,17.04-15.26,25.27-64.23,6.66-83.35-3.54-2.95-1.59-8.16-5.03-13.64-9.41-15.87-8.62-29.83-20.69-38.74-36.02-7.23-12.5-9.81-27-9.04-41.53-2.07-21.71.69-42.18,7.13-61.3,13.77-49.92,56.42-89.85,101.75-115.96,16.88-9.74,34.64-19.02,53.34-24.74,57.61-17.72,141.34-7.76,189.52,28.95,33.66,25.64,46.66,59.69,53.23,101.72,1.54,9.92,2.61,19.97,2.71,30.02Z" style="fill:#fed1b4; mix-blend-mode:multiply; stroke-width:0px;"/><path d="M1056.98,522.6c-10.74,5.01-15.77,21.63-11.27,37.11,4.52,15.48,16.83,23.98,27.57,18.98,10.71-5,15.77-21.6,11.27-37.11-4.49-15.47-16.86-23.96-27.57-18.98Z" style="fill:#613021; stroke-width:0px;"/><path d="M1060.97,533.8c-6.33,2.96-9.31,12.75-6.67,21.86,2.66,9.13,9.94,14.13,16.24,11.19,6.33-2.94,9.31-12.74,6.65-21.86-2.63-9.13-9.92-14.12-16.22-11.19Z" style="fill:#3c1504; stroke-width:0px;"/><path d="M1056.43,531.84c-2.52.41-4.57,3.56-4.55,7.04,0,3.46,2.05,5.98,4.57,5.57,2.53-.39,4.57-3.54,4.55-7.03,0-3.48-2.05-5.97-4.57-5.58Z" style="fill:#fff; stroke-width:0px;"/><path d="M1053.37,550.67c-1.33.69-1.89,2.82-1.22,4.75.66,1.92,2.26,2.93,3.59,2.24,1.33-.69,1.89-2.82,1.22-4.75-.64-1.92-2.26-2.92-3.59-2.24Z" style="fill:#fff; stroke-width:0px;"/><path d="M833.54,559.05c-10.71,5.01-15.79,21.62-11.3,37.1,4.55,15.47,16.86,23.98,27.6,18.98,10.72-4.99,15.77-21.6,11.27-37.1-4.49-15.48-16.86-23.96-27.57-18.98Z" style="fill:#613021; stroke-width:0px;"/><path d="M837.5,570.24c-6.33,2.95-9.28,12.76-6.65,21.86,2.69,9.13,9.94,14.13,16.25,11.18,6.33-2.94,9.31-12.73,6.67-21.86-2.66-9.12-9.94-14.12-16.27-11.19Z" style="fill:#3c1504; stroke-width:0px;"/><path d="M832.98,568.28c-2.53.4-4.57,3.55-4.55,7.02,0,3.48,2.05,5.98,4.57,5.58,2.53-.4,4.57-3.53,4.55-7.02,0-3.48-2.05-5.97-4.57-5.59Z" style="fill:#fff; stroke-width:0px;"/><path d="M829.92,587.09c-1.3.7-1.89,2.83-1.22,4.75.64,1.95,2.26,2.94,3.56,2.25,1.35-.69,1.89-2.82,1.25-4.74-.66-1.95-2.26-2.95-3.59-2.26Z" style="fill:#fff; stroke-width:0px;"/><path d="M998.2,518.04c10.93,9.42,15.31,2.21,22.33-7.8,12.76-18.25,32.89-25.49,54.69-19.43,9.86,2.74,19.52,6.51,29.75,7.13,17.47,1.06,2.07-24.12-1.44-28.16-21.24-24.51-61.6-30.34-90-15.3-5.08,2.66-9.94,7.25-13.98,12.87-10.08,14.02-16.51,37.61-1.36,50.7Z" style="fill:#fffeee; stroke-width:0px;"/><path d="M1108.06,476.67c-.82,1.61-2.37,3.1-5.05,4.31-7.6,3.38-16.27.33-23.79-1.88-13.93-4.07-28.5-3.84-41.77,2.92-11.11,5.66-19.27,15.76-30.71,20.63-3.75,1.58-9.81.82-11.99-3.11-2.85-5.05-3.8-10.2-3.51-15.27-3.62,11.99-3,25.15,6.97,33.77,10.93,9.42,15.31,2.21,22.33-7.8,12.76-18.25,32.89-25.49,54.69-19.43,9.86,2.74,19.52,6.51,29.75,7.13,12.79.77,7.95-12.52,3.08-21.27Z" style="fill:#dcddde; mix-blend-mode:multiply; stroke-width:0px;"/><path d="M995.41,482.1s5.53-26.06,42.86-32.02c37.33-5.98,65.49,25.52,65.49,25.52,0,0-30.18-25.59-63.73-20.03-33.61,5.56-44.61,26.52-44.61,26.52Z" style="fill:#fff; stroke-width:0px;"/><path d="M972.81,597.74c-13.67,1.31-32.41,7.5-47.11,17.52.03-.56.03-1.09,0-1.31-.27-2.79.05-5.3-.48-8.02-.98-5.33-2.02-10.86-2.45-16.25-.08-.94-1.38.66-1.41,1.14-.32,5.4,0,10.86,0,16.26,0,3.76-.13,7.58-.08,11.39-3.61,2.84-6.89,5.94-9.65,9.26-9.2,8.12-14.81,18.2-12.95,30.06,3.24,20.43,31.21,28.83,48.02,30.21,25.28,2.05,54.32-5.4,74.82-20.22.8-.57,2.02-3.87.32-2.79-28.82,18.22-66.18,21.72-97.34,7.51-9.46-4.31-18.93-13.81-18.45-24.86.53-11.38,13.05-21.22,21.83-26.32,26.43-15.45,55.81-21.23,86.49-15.87,6.54,1.14,13.93,3.73,18.13,9.29,4.57,6.06,3.16,17.17.11,23.69-.53,1.13.51,1.1.98.27,25.42-44.5-29.14-44-60.78-40.97Z" style="fill:#d17e58; stroke-width:0px;"/><path d="M862.52,490.13c-6.35-2.79-12.87-4.29-18.61-4.04-32.09,1.38-63.97,26.83-69.9,58.74-.98,5.22-1.52,34.75,13.03,25.01,8.51-5.73,14.94-13.84,22.07-21.21,15.71-16.26,36.74-20.18,57-10.9,11.11,5.1,18.56,9.09,23.18-4.55,6.49-18.94-11.01-36.07-26.77-43.05Z" style="fill:#fffeee; stroke-width:0px;"/><path d="M888.71,515.16c-.32,4.17-2.21,7.56-6.86,8.77-11.06,2.89-17.65-7.27-28.29-7.65-13.59-.5-32.12,3.73-42.7,13.08-7.87,6.96-21.99,27.03-34.27,19.38-1.17-.72-2.02-1.54-2.76-2.41-.77,7.79-.29,32.58,13.21,23.53,8.51-5.73,14.94-13.84,22.07-21.21,15.71-16.26,36.74-20.18,57-10.9,11.11,5.1,18.56,9.09,23.18-4.55,2.15-6.31,1.62-12.42-.59-18.03Z" style="fill:#dcddde; mix-blend-mode:multiply; stroke-width:0px;"/><path d="M778.64,539.76s5.48-36.7,59.72-47.92c0,0,33.55-5.94,45.12,20.15,0,0-24.62-23.91-59.61-10.2-34.96,13.69-45.22,37.98-45.22,37.98Z" style="fill:#fff; stroke-width:0px;"/><path d="M1442.21,744.56c-21.86-41.35-66.58-71.59-106.78-92.45-43.71-22.65-85.93-44.82-115.44-85.31-17.73-24.29-32.78-43.77-40.63-72.94-12.63-8.12-13.69,64.35-16.56,81.07-13.85,81.09-120.26,98.24-185.98,110.35-60.65,11.16-114.09,26.77-174.95,2.55-14.62-5.83-58.86-49.78-60.59-61.37-1.67-11.3-6.22-35.49-20.44-37.1-1.2-.15-3.14,3.47-1.97,3.77.11.03.16.09.27.12h0c17.07,51.87-11.09,120.69-41.34,162.23-25.63,35.22-62.35,60.16-90.88,92.87-19.33,22.19-31.67,43.2-36.98,72.49-3.38,18.55-3.7,34.56.96,53.01.77,3.08,15.79,24.1,18.61,23.7-2.87,13.51-3.56,27.34-2.13,41.88,3.16,31.88,20.23,62.54,40.65,86.42,10.45,12.22,19.17,13.04,32.44,11.18,1.7,4.86,3.54,9.73,5.66,14.62,13.85,31.72,46.21,57.96,75.35,74.55,31.8,18.09,70.83,27.21,109.67,27.26,18.82,10.78,39.19,18.43,54.1,22.16,60.65,15.13,124.4,16.59,185.58,3.47,46.24-9.92,93.83-33.54,134.59-65.92,13.8-2.74,27.6-8,34.7-10.83,35.25-14,62.05-40.39,86.01-68.82,16.72-19.82,35.63-45.04,48.34-72.15,51.07-17.69,74.68-99.94,83.99-146.28,6.3-31.55-.05-60.58-9.65-90.41,14.39-22.9,4.92-58.3-6.59-80.12Z" style="fill:#fffeee; stroke-width:0px;"/><path d="M1442.21,744.56c-21.86-41.35-66.58-71.59-106.78-92.45-43.71-22.65-85.93-44.82-115.44-85.31-17.73-24.29-32.78-43.77-40.63-72.94-12.63-8.12-13.69,64.35-16.56,81.07-13.85,81.09-120.26,98.24-185.98,110.35-60.65,11.16-114.09,26.77-174.95,2.55-14.62-5.83-58.86-49.78-60.59-61.37-1.67-11.3-6.22-35.49-20.44-37.1-1.2-.15-3.14,3.47-1.97,3.77.11.03.16.09.27.12h0c17.07,51.87-11.09,120.69-41.34,162.23-25.63,35.22-62.35,60.16-90.88,92.87-19.33,22.19-31.67,43.2-36.98,72.49-3.38,18.55-3.7,34.56.96,53.01.77,3.08,15.79,24.1,18.61,23.7-2.87,13.51-3.56,27.34-2.13,41.88,3.16,31.88,20.23,62.54,40.65,86.42,10.45,12.22,19.17,13.04,32.44,11.18,1.7,4.86,3.54,9.73,5.66,14.62,13.85,31.72,46.21,57.96,75.35,74.55,31.8,18.09,70.83,27.21,109.67,27.26,18.82,10.78,39.19,18.43,54.1,22.16,60.65,15.13,124.4,16.59,185.58,3.47,46.24-9.92,93.83-33.54,134.59-65.92,13.8-2.74,27.6-8,34.7-10.83,35.25-14,62.05-40.39,86.01-68.82,16.72-19.82,35.63-45.04,48.34-72.15,51.07-17.69,74.68-99.94,83.99-146.28,6.3-31.55-.05-60.58-9.65-90.41,14.39-22.9,4.92-58.3-6.59-80.12ZM1328.23,767.12c-14.01-16.23-35.44-26.7-57.4-26.84,47.62,49.27,60.22,137.19,8.43,186.69,19.49-6.24,33.95-21.77,42.96-39.81.96-1.95,4.79-2.23,4.84.46,1.14,42.69-26.46,80.29-55.25,110.38-29.91,31.2-65.75,58.03-103.8,79.19-2.15,1.2-3.88-1.26-3.38-3.1,3.24-11.88,6.65-23.58,8.72-35.52-28.02,39.39-75.27,64.01-123.47,77.76-31.37,13.16-65.54,19.14-101.27,20.22-2.21.04-2.95-3.15-1.3-4.33,4.36-3.15,28.93-25.4,38.34-38.65-33.31,24.19-76.31,38.22-116.75,42.1-40.73,3.91-84.63-2.3-114.01-30.56,6.49,14.41,16.09,26.91,29.46,36.7,2.37,1.71.32,5.09-2.39,4.29-55.14-16.27-110.76-51.57-127.59-107.87-.67-2.21,2.34-3.41,3.99-2.4,6.99,4.32,14.62,6.56,22.63,4.83-22.79-22.95-42.65-50.62-47.72-82.87-4.97-31.56,2.58-61.99,15.84-90.76-17.36,11.35-32.6,30.07-36.4,49.65-.43,2.24-3.8,3.16-4.81.79-15.85-37.34,17.31-72.57,42.54-97.46,23.64-23.3,49.75-45.98,68.54-73.05,28.31-30.65,32.59-80.87,33.58-78.89,15.42,31.27,33.42,58.59,71.17,65.15,48.1,8.35,98.61,7.74,146.87-.29,6.57-1.09,13.08-2.25,19.62-3.38,6.65-2.18,14.22-3.51,18.29-4.74,13.93-4.18,29.17-7.3,42.11-14.05,43.76-22.84,90.61-45.74,114.19-90.67.93-1.81,25.47,43.1,45.44,55.79,17.28,10.97,38.74,15.07,57.93,22.01,33.71,12.2,61.63,71.09,60.03,69.21Z" style="fill:#dcddde; mix-blend-mode:multiply; stroke-width:0px;"/><path d="M1442.21,744.56c-19.09-36.11-55.6-63.75-91.36-84.06,4.12,4.31,8.3,8.59,12.26,13.18,9.92,11.53,17.23,24.78,24.38,38.16,15.42,28.78,19.04,61.12,27.97,92.15.74,2.67-3.4,4.47-4.95,2.26-9.33-13.61-22.41-21.48-36.5-27.98,19.44,24.63,30.95,56.58,35.33,86.64,6.89,47.17-7.68,96.79-34.78,135.54-1.33,1.91-4.81,1.28-5.05-1.2-1.22-12.94-4.23-25.44-7.82-37.77-1.22,39.64-16.11,78.44-38.76,111.46-30.74,44.76-77.64,92.22-131.9,105.27-2.18.53-3.75-1.91-3.11-3.77,4.04-11.75,5.98-23.61,6.62-35.57-29.54,53.55-85.72,87.62-144.45,101.51-32.73,7.72-64.42,7.9-97.82,6.96-32.25-.92-67.37-1.61-95.61-19.25-1.75-1.09-1.44-4.07.48-4.83,17.92-7.09,32.94-17.64,46.85-29.7-32.54,14.82-67.85,23.38-103.53,20.3-46.72-3.99-106.01-27.38-128.29-71.69-1.22-2.41,1.36-4.37,3.56-3.79,8.38,2.21,16.03,2.63,24.06.29-13.61-13.72-32.81-21.3-46.42-35.47-14.52-15.06-24.59-31.82-34.59-50-20.18-36.7-25.66-73.37-21.32-113.85-6.65,9.82-9.73,21.49-13.24,32.91-.72,2.34-4.25,2.32-5.18.17-17.44-41.3-11.11-88.61,10.63-127.08-.9,1-1.86,1.98-2.76,3-19.33,22.19-31.67,43.2-36.98,72.49-3.38,18.55-3.7,34.56.96,53.01.77,3.08,15.79,24.1,18.61,23.7-2.87,13.51-3.56,27.34-2.13,41.88,3.16,31.88,20.23,62.54,40.65,86.42,10.45,12.22,19.17,13.04,32.44,11.18,1.7,4.86,3.54,9.73,5.66,14.62,13.85,31.72,46.21,57.96,75.35,74.55,31.8,18.09,70.83,27.21,109.67,27.26,18.82,10.78,39.19,18.43,54.1,22.16,60.65,15.13,124.4,16.59,185.58,3.47,46.24-9.92,93.83-33.54,134.59-65.92,13.8-2.74,27.6-8,34.7-10.83,35.25-14,62.05-40.39,86.01-68.82,16.72-19.82,35.63-45.04,48.34-72.15,51.07-17.69,74.68-99.94,83.99-146.28,6.3-31.55-.05-60.58-9.65-90.41,14.39-22.9,4.92-58.3-6.59-80.12Z" style="fill:#dcddde; mix-blend-mode:multiply; stroke-width:0px;"/><path d="M1126.72,249.13c1.67-1.83,3.06-4.75,1.99-6.34-19.97-29.32-92.84-30.91-122.44-25.27-19.49,3.71-37.36,11.44-54.42,21.6-7.76,4.61-12.04,8.46-14.14,13.15,3.56-7.97,5.93-16.84,8.85-25.14.4-1.1.45-2.39-.45-3.23-.69-.69-1.38-1.38-2.1-2.07-.53-.55-1.73.12-2.18.41-10.69,6.53-20.42,12.42-27.17,23.3-.8,1.27-2.13,3.74-3.56,6.63-3.11-10.34-9.09-19.88-20.37-19.43-1.65.08-3,2.13-3.59,3.46-3.43,8.07-1.36,15.69-1.36,24.43,0-10.44-29.17-4.83-34.8-3.83-23.85,4.2-66.12,13.17-81.49,34.13-.42.56-1.91,2.98-.72,3.59,1.52.72,3.11,1.2,4.73,1.49-53.92,22.03-101.78,63.09-129.35,114.13-6.01,8.99-10.53,18.27-12.34,27.56-10.74,31.75-11.46,67.71-4.2,99.79,4.71,20.89,23.11,77.55,48.68,79.33,3.67.27,6.11-5.73,6.62-8.45.43-2.2.61-4.51.72-6.84,3.99,6.33,8.77,12.1,14.36,17.12,10.64,15.79,24.7,29.32,39.48,38.09.74.46,4.36-43.57,2.77-60.15-4.04-41.64,7.55-84.69,27.09-114.84,48.1-92.11,175.05-130.07,270.77-102.82,50.44,14.35,104.41,37.86,119.72,92.92,3.72,13.39,8.35,83.21,8.75,97.31,1.06,33.82,86.62-44.85,82.29-176.16-1.2-36.03-28.45-113.43-122.14-143.89Z" style="fill:#fffeee; stroke-width:0px;"/><path d="M1126.72,249.13c1.67-1.83,3.06-4.75,1.99-6.34-19.97-29.32-92.84-30.91-122.44-25.27-19.49,3.71-37.36,11.44-54.42,21.6-7.76,4.61-12.04,8.46-14.14,13.15,3.56-7.97,5.93-16.84,8.85-25.14.4-1.1.45-2.39-.45-3.23-.69-.69-1.38-1.38-2.1-2.07-.53-.55-1.73.12-2.18.41-10.69,6.53-20.42,12.42-27.17,23.3-.8,1.27-2.13,3.74-3.56,6.63-3.11-10.34-9.09-19.88-20.37-19.43-1.65.08-3,2.13-3.59,3.46-3.43,8.07-1.36,15.69-1.36,24.43,0-10.44-29.17-4.83-34.8-3.83-23.85,4.2-66.12,13.17-81.49,34.13-.42.56-1.91,2.98-.72,3.59,1.52.72,3.11,1.2,4.73,1.49-53.92,22.03-101.78,63.09-129.35,114.13-6.01,8.99-10.53,18.27-12.34,27.56-10.74,31.75-11.46,67.71-4.2,99.79,4.71,20.89,23.11,77.55,48.68,79.33,3.67.27,6.11-5.73,6.62-8.45.43-2.2.61-4.51.72-6.84,3.99,6.33,8.77,12.1,14.36,17.12,10.64,15.79,24.7,29.32,39.48,38.09.74.46,4.36-43.57,2.77-60.15-4.04-41.64,7.55-84.69,27.09-114.84,48.1-92.11,175.05-130.07,270.77-102.82,50.44,14.35,104.41,37.86,119.72,92.92,3.72,13.39,8.35,83.21,8.75,97.31,1.06,33.82,86.62-44.85,82.29-176.16-1.2-36.03-28.45-113.43-122.14-143.89ZM1232.81,419.49c-.69,26.09-5.93,55.33-25.9,73.87-1.54,1.44-4.31.35-4.55-1.71-2.79-22.76-8.46-44-17.33-64.15.1,9.38-1.54,18.23-7.05,24.61-1.06,1.25-3.35,1.77-4.41.15-12.71-18.75-20.07-39.33-35.31-56.5-13.59-15.28-27.46-29.94-44.27-41.71-15.63-10.93-40.47-28.43-63.76-33.22,12.02,8.04,20.92,19.35,21.8,34.11.11,2.18-1.62,3.71-3.8,3.06-40.01-12.13-82.85-17.28-124.08-8.08-39.37,8.73-73.17,29.57-107.95,49.05-1.83,1.05-4.25-.82-3.93-2.84,1.67-11.26,6.12-21.58,12.31-30.86-5.9,3.83-11.59,7.97-16.91,12.79-20.05,18.09-37.83,39.06-51.53,62.37-14.54,24.76-27.41,50.26-36.29,77.63-4.33,13.31-8.06,26.57-9.36,40.57-1.09,12.25-1.83,24.47-4.44,36.52-.53,2.39-3.22,3.38-4.97,1.49-15.66-16.89-17.12-45.05-18.34-66.89-1.46-25.64,6.51-50.44,13.69-74.86-25.26,32.26-17.47,80.85-33.23,117.58-.82,1.89-3.43,2.5-4.81.78-16.22-20.54-21.64-50.86-20.58-79-6.01-55.46,27.17-112.05,71.76-145.61,25.04-18.86,53.63-32.44,82.5-44.63-1.75-.99-3.54-1.96-5.37-2.94-1.73-.9-2.63-3.4-.77-4.78,22.28-16.53,51.63-19.76,78.51-22.25,24.03-2.21,45.09,6.11,67.51,11.15,15.93-15.59,37.17-26.95,56.82-33.28,32.12-10.33,80.99-25.96,112.07-5.58,2.02,1.34,1.2,4.74-1.19,5.05-8.59,1.15-16.51,3.77-23.96,7.36,52.48,4.56,104.57,37.03,133.52,78.74,17.04,24.53,24.41,52.15,23.61,82.02Z" style="fill:#dcddde; mix-blend-mode:multiply; stroke-width:0px;"/><path d="M697.12,150.11s181.41-187.5,445.93-126.79c0,0,178.22,63.43,239.37,194.28,0,0-141.55-198.02-377.86-188.77-183.75,7.21-307.43,121.28-307.43,121.28Z" style="fill:#f9b4a9; opacity:.4; stroke-width:0px;"/><path d="M976.08,606.11s-65.46,13.63-59.21,40.31c6.25,26.67,93.83,8.15,103.43-20.01,9.57-28.16-41.5-21.5-44.21-20.3Z" style="fill:#fed1b4; mix-blend-mode:screen; opacity:.9; stroke-width:0px;"/><path d="M953.48,617.93s-23.61,4.92-21.35,14.53c2.23,9.61,33.82,2.93,37.27-7.22,3.43-10.14-14.94-7.75-15.93-7.31Z" style="fill:#fed1b4; mix-blend-mode:screen; stroke-width:0px;"/><path d="M1081.04,577.66c10.8-4.79,21.99-8.18,33.31-11.13-22.28-.58-51.82,6.89-62.72,27.09,8.29-7.25,19.86-11.71,29.41-15.97Z" style="fill:#d17e58; stroke-width:0px;"/><path d="M837.53,618.23c-11.75-1.05-23.45-.62-35.12.25,20.9-7.76,51.23-10.25,68.12,5.3-10.21-4.15-22.6-4.65-33-5.56Z" style="fill:#d17e58; stroke-width:0px;"/><path d="M1128.34,570.97s-50.33,5.54-74.13,46.5c0,0,32.57-26.77,74.13-46.5Z" style="fill:#fed1b4; mix-blend-mode:screen; opacity:.9; stroke-width:0px;"/><path d="M795.6,626.39s49.4-11.09,85.16,19.97c0,0-39.45-14.78-85.16-19.97Z" style="fill:#fed1b4; mix-blend-mode:screen; opacity:.9; stroke-width:0px;"/><path d="M855.82,725.75s146.66,43.72,258.16-49.19c0,0,16.41,104.65-104.14,134.03-120.58,29.36-154.02-84.84-154.02-84.84Z" style="fill:#dcddde; mix-blend-mode:multiply; stroke-width:0px;"/><path d="M866.22,723.52s134.8,40.17,237.29-45.22c0,0,15.07,96.18-95.74,123.18-110.79,26.99-141.55-77.96-141.55-77.96Z" style="fill:#b7203d; stroke-width:0px;"/><path d="M1018.41,768.39c-28.13,5.04-52.83,16.42-74.1,33.83,17.44,4.68,38.39,5.37,63.46-.74,28.96-7.06,49.24-18.85,63.49-32.38-17.15-4.84-37.86-3.41-52.86-.7Z" style="fill:#f17163; stroke-width:0px;"/><path d="M1029.63,747.11c33.61-13.53,60.62-35.7,74.18-66.2-.16-1.66-.29-2.61-.29-2.61-70.14,58.42-155.35,58.07-202.2,52.01,9.25,47.61,96.04,29.78,128.31,16.8Z" style="fill:#fff; mix-blend-mode:screen; stroke-width:0px;"/><path d="M1003.09,776.17s-44.21,12.33-36.93,21.8c7.26,9.47,52.01-3.24,56.9-17.31,2.87-8.3-19.97-4.49-19.97-4.49Z" style="fill:#de9695; mix-blend-mode:screen; stroke-width:0px;"/><path d="M938.27,727.21c10.98-6.19,22.23-11.98,33.02-18.66,5.43-3.34,22.81-10.59,12.74-21.2-3.59-3.79-7.47-6.57-11.91-8.66-1.38-.58-2.77-1.13-4.18-1.67-.66-.23-1.3-.51-2.07-.76-11.65-4.13-24.06-6.68-35.23-9.15-36.24-8-68.89-18.5-105.69-8.3-29.86,8.26-54,37.12-74.29,58.66-15.71,16.67-30.58,26.58-54.08,29.37-42.99,5.1-39.8-47.45-8.46-64.91,1.07-.62,4.58-6.69,2.02-6.2-.19.03-.35.07-.51.11-38.1,7.47-70.64,37.02-69.23,78.85,2.13,62.73,71.04,100.4,127.38,105.65,63.78,5.92,112.86-69.46,153.12-107.16,11.3-10.61,24.17-18.52,37.35-25.95Z" style="fill:#fffeee; stroke-width:0px;"/><path d="M696.59,746.83c-42.99,5.1-39.8-47.45-8.46-64.91.45-.27,1.38-1.56,2.07-2.92-21.01,9.32-45.12,34.12-32.38,57.57,9.15,16.84,27.31,26.45,46.21,21.2,32.06-8.92,56.69-37.21,79.76-59.64,27.07-26.28,58.73-40.68,97.34-37.1,24.22,2.24,47.43,8.12,71.23,12.76,5.26,1.05,10.61,2.08,15.9,3.36-.11-.03-.21-.09-.32-.13-.66-.23-1.3-.51-2.07-.76-11.65-4.13-24.06-6.68-35.23-9.15-36.24-8-68.89-18.5-105.69-8.3-29.86,8.26-54,37.12-74.29,58.66-15.71,16.67-30.58,26.58-54.08,29.37Z" style="fill:#dcddde; mix-blend-mode:multiply; stroke-width:0px;"/><path d="M880.04,728.38c-16.35,12.53-31.69,27.45-44.16,43.87-7.63,10.08-31.82,24.83-30.68,22.4,6.14-13.12,11.67-27.17,11.83-41.74-10.74,13.09-18.72,28.67-31.32,39.99-13.05,11.64-28.69,18.27-46.16,19.79-31.45,2.72-60.96-10.34-84.34-30.97-33.69-29.73-23.29-72.41,6.33-95.69-24.62,13.53-42.17,37.72-41.13,68.66,2.13,62.73,71.04,100.4,127.38,105.65,63.78,5.92,112.86-69.46,153.12-107.16,11.3-10.61,24.17-18.52,37.35-25.95,10.98-6.19,22.23-11.98,33.02-18.66,4.39-2.72,16.67-8,15.77-15.56-38.61-3.99-76.31,11.87-107.02,35.39Z" style="fill:#dcddde; mix-blend-mode:multiply; stroke-width:0px;"/><path d="M1047.15,709.07c-12.39-2.27-24.89-4.13-37.28-6.95-6.2-1.4-25.02-2.63-18.93-15.93,2.18-4.75,4.95-8.64,8.48-12.06,1.12-.99,2.23-1.96,3.38-2.94.58-.43,1.06-.9,1.75-1.39,9.65-7.65,20.58-14.11,30.36-20.06,31.67-19.32,59.16-39.83,97.26-42.13,30.92-1.88,63.12,17.63,89.28,31.42,20.29,10.68,37.54,15.22,60.7,10.25,42.3-9.11,22.28-57.79-13.06-64.15-1.2-.23-6.49-4.84-3.91-5.2.16-.04.35-.04.51-.07,38.47-5.26,78.83,12.11,91.04,52.14,18.34,60.05-34.64,118.01-86.25,141.23-58.41,26.3-129.3-29.13-179.57-51.74-14.14-6.36-28.88-9.7-43.76-12.44Z" style="fill:#fffeee; stroke-width:0px;"/><path d="M1282.15,649.29c42.3-9.11,22.28-57.79-13.06-64.15-.5-.1-1.81-1.04-2.9-2.07,22.89,1.99,53.73,17.63,49.29,43.95-3.19,18.89-17.26,33.88-36.82,35.05-33.26,1.96-65.7-16.85-94.81-30.58-34.11-16.08-68.76-19.44-104.12-3.55-22.17,9.97-42.22,23.08-63.22,35.18-4.65,2.68-9.39,5.39-13.96,8.31.08-.08.19-.15.24-.23.58-.43,1.06-.9,1.75-1.39,9.65-7.65,20.58-14.11,30.36-20.06,31.67-19.32,59.16-39.83,97.26-42.13,30.92-1.88,63.12,17.63,89.28,31.42,20.29,10.68,37.54,15.22,60.7,10.25Z" style="fill:#dcddde; mix-blend-mode:multiply; stroke-width:0px;"/><path d="M1102.64,691.31c19.51,6.53,38.84,15.7,55.97,27.19,10.5,7.06,38.18,13.17,36.29,11.26-10.08-10.44-19.83-21.94-24.73-35.67,14.41,8.89,26.99,21.05,42.62,27.65,16.11,6.82,33.05,8.02,50.04,3.79,30.66-7.61,54.35-29.56,69.77-56.64,22.23-39.06-1.44-76.06-37.01-88.49,27.68,4.83,52.11,22.01,61.15,51.61,18.34,60.05-34.64,118.01-86.25,141.23-58.41,26.3-129.3-29.13-179.57-51.74-14.14-6.36-28.88-9.7-43.76-12.44-12.39-2.27-24.89-4.13-37.28-6.95-5.02-1.14-18.37-2.17-19.97-9.61,35.23-16.3,76.04-13.49,112.73-1.2Z" style="fill:#dcddde; mix-blend-mode:multiply; stroke-width:0px;"/></g></g></g></svg>