<?xml version="1.0" encoding="UTF-8"?><svg id="uuid-55084845-4c23-40fd-9eba-403d742cc17c" xmlns="http://www.w3.org/2000/svg" viewBox="0 0 384.91 545"><path d="m63.13,366.07c5.8-2.11,8.41-6.6,10.9-12.12,19.46-43.16,29.58-88.54,34.59-135.45,4.45-41.64,24.92-75.09,55.95-102.62,12.33-10.94,24.04-22.57,36.11-33.8,1.75-1.63,3.29-2.93,1-5.17-.63-2.85-2.51-3.38-5.04-2.71l.68-.47s-.65.51-.65.51c.58-2.05,1.17-4.1,3.24-5.23.61.09,1.19,0,1.75-.26,9.42,6.56,14.82-3.09,22.01-5.47.56,2.81,1.86,2.12,3.83,1.16,11.8-5.82,11.25-5.55,14.09,7.12,2.88,12.88,1.53,29.85,22.4,29.5.48,0,1,1.78,1.5,2.73-3.38,4.07-14.79-5.22-12.82,7.05,4.8,29.93,9.74,60.01,24.88,86.89,12.19,21.65,23.17,43.93,35.13,65.67,13.58,24.69,20.76,51.19,26.07,78.56,2.89,14.88-.04,29.7,1.57,44.47.17,2.87-.74,6,1.94,8.29-.01.73-.03,1.45-.04,2.18-1.76-.04-3.52-.07-5.27-.11-7.59-.53-13.93,3.87-21.02,5.33-23.05,4.77-45.89,11.76-69.83,5.85-4.29,13.28-4.26,26.55.02,39.83l-.24.75c.73,1.08,1.46,2.17,2.2,3.25l.73-.39c-1.67,1.88-3.81,2.76-6.28,2.95-10.75-6.37-20.52-5.3-29.82,3.25-7.01,6.45-14.46,5.99-21.62-.19-2.77-2.39-5.57-4.75-8.38-7.09-11.52-9.59-16.38-10.03-29.63-3.21-5.5,2.83-11.05,5.7-16.87,7.7-14.28,4.92-29.12-.02-37.3-12.69-4.25-6.58-8.73-8.15-16.49-6.1-11.8,3.12-24.05,4.47-32.81-7.46-1.52-10.59-4.46-21.21.45-31.71,2.37,2.24.72,4.81.57,7.24-1.32,21.24,7.55,29.08,28.42,25.07,1.43-.27,2.79-.93,4.22-1.2,8.93-1.69,16.74-.93,21.24,8.67,2.45,5.22,7.14,8.3,12.55,10.01,5.69,1.8,9.45,1.67,10.07-6.38.75-9.67,1-19.54,4.87-28.97.86-2.09,4.55-8.99-2.31-11.04-19.59-5.84-36.24-17.27-53.39-27.76-6.8-4.15-11.31-1.89-15.43,4.52-3.73,5.81-4.99,13.02-10.33,17.85-4.76-4.07.13-7.65.74-11.36.65-3.97,5.18-6.93,3.22-11.69.58-.45,1.16-.9,1.74-1.35,0,0,.54.4.54.4l-.43-.5c.6-.67,1.2-1.34,1.8-2.01,1.51,1.08,1.63.34,1.3-.99,0,0,.62-.48.62-.48,1.28.64,2.27.25,3.08-.83Zm232.44-114.73c-4.22-12.63-11.38-23.76-18.16-35.05-13.14-21.89-22.61-45.23-27.19-70.34-4.2-23.05-7.58-46.25-11.47-69.36-.58-3.44.04-8.22-3.58-9.67-3.77-1.52-6.35,2.59-9.24,4.71-21.32,15.69-39.45,34.92-58.91,52.69-29.98,27.37-47.57,60.91-51.48,101.4-3.86,40-12.05,78.88-28.51,115.78-2.21,4.95-3.25,10.43-4.83,15.67-3.94,5.64-1.59,9.41,3.54,12.58,13.42,8.29,27.21,15.76,41.95,21.55,5.83,2.29,9.51,1.68,12.7-3.9,4.35-7.61,11.45-11.17,20.05-11.47,20.48-.73,40.98-2.02,61.38,1.58,9.76,1.72,17.62,6.3,20.76,15.79,2.79,8.42,8.52,10.43,15.98,9.9,18.27-1.28,36.45-3.62,54.14-8.38,17.56-4.73,18.55-6.53,18.53-25.3-.06-42.94-13.83-81.78-35.67-118.17Zm-104.23,142.45c12.49,1.36,29.58-6.28,34.58,16.14,1.75,7.86,4.68,14.53-2.01,20.88-3.1,2.94-3.54,6.45-2.59,10.04,1.13,4.28,4.93,1.35,7.42,2.08,7.12,2.11,9.64-.45,9.28-7.9-.4-8.36,1.02-16.81.53-25.16-.97-16.74-7.65-23.16-24.22-25.67-17.5-2.65-35.03-1.48-52.57-1.27-8.16.1-13.7,3.99-17.28,11.28-7.22,14.72-10.2,30.31-10.03,46.57.02,2.2-1.92,6.05,1.95,6.14,3.31.07,7.48-.98,8.38-5.4.34-1.69-.55-3.59-.54-5.39.14-32.91,7.73-40.78,40.45-42.03,1.83-.07,3.65-.17,6.64-.31Zm24.42,9.96c-18.18-7.1-36.65-3.21-55.05-2.19-2.95.17-4.78,2.21-5.69,4.55-3.28,8.42-6.98,16.71-5.92,26.23.5,4.5,1.2,6.9,6.57,5.13,12.55-4.15,23.65-1.9,32.93,8.08,2.19,2.35,5.36,3.77,7.98,5.76,5.41,4.12,9.51.29,13.93-2.09,5.52-2.96,4.23-8.14,3.86-12.64-.43-5.26-5.65-5.28-9.18-5.98-5.33-1.06-10.94-.56-16.36-1.28-7.59-1.02-11.85-5.14-11.06-13.39.74-7.72,4.92-10.49,12.5-10.27,8.47.24,17.11,1.56,25.5-1.9Zm-23.29,7.39c-4.93-1.37-8.42-.5-9.13,4.83-.72,5.4,3.47,5.69,6.99,6.27,7.18,1.18,14.39,2.14,21.59,3.17,4.81.68,9.19.05,9.69-5.82.44-5.15-3.17-6.83-7.73-7.09-7.28-.42-14.56-.91-21.42-1.34Z" style="fill:#5e2226; stroke-width:0px;"/><path d="m54.46,371.84c1.96,4.77-2.57,7.73-3.22,11.69-.61,3.72-5.5,7.29-.74,11.36-.31.62-.46,1.28-.46,1.98-4.91,10.5-1.97,21.12-.45,31.71-3.99-3.07-5.15-6.93-5.39-12.1-.23-5,1.13-12.74-2.97-14.67-5.84-2.74-12.63,1.12-18,5-5.88,4.25-11.53,8.86-13.63,16.33-3.35,7.01-2.35,12.55,5.06,16.37,3.76,1.93,7.38,4.44,2.81,9.13-8.32,8.55-5.33,17.38-.58,26.15,4.83,8.92,11.91,16.36,22.48,14.31,13.2-2.56,17.47,2.72,21.26,14.46,6.84,21.17,25.15,25.85,43.04,12.6,14.66-10.87,22.09-10.42,35.38,2.16,2.93,2.77,5.76,5.63,8.8,8.28,13.77,12.01,25.48,12.45,38.75-.3,8.58-8.23,16.41-7.99,25.46-2.13,3.99,2.58,8.15,4.92,12.02,7.67,9.46,6.74,19.23,7.21,30.15,3.46,12.8-4.39,21.85-12.89,29.75-23.26,1.76-2.31,3.71-6.82,7.19-1.94,5.85,8.2,18.17,12.78,27.11,6.58,14.64-10.15,35.13-16.43,32.87-43.13,4.6,7.61,8.27,6.36,12.53,3.31,11.47-8.18,15.7-19.78,12.11-34.39-4.49-15.76-15.25-23.95-31.22-25.88,0,0-.32-.34-.32-.34.19-1.45.37-2.89.55-4.34,4.38-.87,8.69-.38,12.98.62,9.35,4.96,17.59,11.25,23.96,19.81.4,2.14.69,4.31,1.22,6.42,5.02,20.04,1.1,39.89-21.54,47.34-3.84,1.26-4.39,4.21-5.73,7.24-9.31,21.06-41.5,35.53-62.45,27.84-4.19-1.54-6.43-1.22-9.31,2.1-13.61,15.67-30.89,22.9-51.68,21.53-5.71-3.16-11.41-6.33-17.12-9.49-12.72-11.46-15-11.86-26.6-.8-8.46,8.07-18.33,9.09-29,8.44-10.08-4.19-17.41-12.14-25.68-18.81-9.77-11-15.2-12.55-23.54-4.36-9.16,8.99-19.52,12.34-31.85,11.23-11.52-5.22-19.85-13.68-25.41-24.96-.25-7.6-2.82-12.07-11.66-9.59-2.94.83-6.3.2-9.46.25-15.96-7.66-27.38-19.02-26.23-37.9.5-8.19,3.13-14.69-3.42-22.92-5.49-6.9-.11-16.71,5.35-24.09,6.38-8.62,14.99-15.2,25.24-15.99,10.41-.8,13.95-6.01,16.45-14.46,1-3.39,3.38-6.38,5.13-9.55Z" style="fill:#4e2930; stroke-width:0px;"/><path d="m300.58,33.99c5.55,13.11,6.29,24.95-8.67,32.59-3.3,1.69-1.13,3.32-.11,5.14,9.15,16.28,6.37,23.51-11.34,28.86-4.87,1.47-9.97,2.16-14.97,3.21-.5-.95-1.01-2.74-1.5-2.73-20.88.35-19.52-16.62-22.4-29.5-2.83-12.67-2.29-12.94-14.09-7.12-1.97.97-3.27,1.65-3.83-1.16.78-.96,1.56-1.91,2.34-2.87,4.37-1.4,8.73-2.8,13.1-4.21,2.38,1.74,4.32,3.52,4.81,6.86,1.14,7.9,3.39,15.69,4.02,23.61.68,8.44,5.34,10.33,12.42,9.59,3.26-.34,6.47-1.06,9.7-1.66,18.49-3.47,26.52-7.79,9.43-24.62-4.99-4.91-4.8-8.46,3.27-10.03,14.79-2.87,17.51-11.31,8.26-24.12-.56-.63-1.12-1.27-1.68-1.9l-1.87-2.05c-5.81-5.45-11.29-11.44-20.68-8.48-4.36,1.38-5.02-1.76-6.27-5.22-3.88-10.75-13.87-13.99-27.3-9.48-12.97,4.36-17.27,11.61-14.01,23.59.84,3.1,2.57,6.81-1.78,8.35-3.74,1.32-5.9-1.08-7.19-4.71-2.31-6.5-7.33-4.96-11.73-3.03-10.55,4.63-13.69,17.74-6.61,27.31,2.34,3.17,5.31,5.89,7.99,8.81-2.07,1.13-2.66,3.18-3.24,5.23-11.06-5.48-15.45-15.05-15.58-26.7-.11-9.68,4.87-18.7,13.63-20.37,11.56-2.21,16.88-8.99,23.63-17.23,9.75-11.9,38.34-14.6,46.75.19,1.29,2.27,3.17,3.76,6.01,4.25,12.7,2.15,21.17,10.8,29.47,19.62Z" style="fill:#4e2930; stroke-width:0px;"/><path d="m196.64,74.2c2.53-.67,4.41-.14,5.04,2.71-1.82-.64-4.04-.54-5.04-2.71Z" style="fill:#4e2930; stroke-width:0px;"/><path d="m56.32,370.39l.43.5s-.54-.39-.54-.4c0,0,.11-.1.11-.1Z" style="fill:#4e2930; stroke-width:0px;"/><path d="m63.13,366.07c-.81,1.09-1.8,1.48-3.08.83,1.03-.28,2.05-.56,3.08-.83Z" style="fill:#4e2930; stroke-width:0px;"/><path d="m59.42,367.38c.33,1.33.21,2.07-1.3.99.25-.58.68-.91,1.3-.99Z" style="fill:#4e2930; stroke-width:0px;"/><path d="m82.21,357.16c1.58-5.23,2.62-10.71,4.83-15.66,16.46-36.9,24.65-75.78,28.51-115.78,3.9-40.49,21.5-74.03,51.48-101.4,19.46-17.76,37.59-37,58.91-52.69,2.89-2.12,5.47-6.23,9.24-4.71,3.62,1.46,3,6.24,3.58,9.67,3.89,23.11,7.26,46.31,11.47,69.36,4.58,25.11,14.04,48.45,27.19,70.34,6.78,11.29,13.94,22.42,18.15,35.05-3.92,1.62-4.11,5.15-3.47,8.32,3.86,19.22,2.14,38.38-.26,57.55-1.61,5.81,1.03,11.05,2.2,16.49.05,2.95.03,6.06-3.31,7.25-2.72.96-3.27-2.25-4.99-3.31-1.54-4.76-2.72-9.67-4.71-14.23-1.88-4.3-4.31-5.2-5.68.53-3.4,6.13,1.69,15.57-5.82,19.44-9.21,4.75-13.05,13.71-19.46,20.6-16.06-.16-31.92,3.01-48.07,2.27-16.39-.75-33.04-2.62-49.12-1.59-24.33,1.57-47.93,3.09-70.66-7.53Zm71.27-86.12c2.14.21,2.92-1.16,4.05-2.77,4.35-6.2,10.46-10.67,15.87-15.79,9.66-9.12,24.87-14.29,25.62-31.35.12-2.84,5.55-7.82,8.34-7.69,6.76.31,9.93-2.65,12.55-7.9,1.51-3.02,10.32-3.01,1.87-9.85-5.81-4.71-7.11-4.02-11.09.55-4.26,4.9-9.5,8.93-14.14,13.52-15.29,15.14-30.49,30.38-45.73,45.56-2.69,2.68-5.15,5.38-3.01,9.54,1.32,2.57,2.26,5.5,5.67,6.18Z" style="fill:#ef5653; stroke-width:0px;"/><path d="m344.58,416.6c15.96,1.93,26.73,10.12,31.22,25.88-.23,2.91-.47,5.82-.7,8.73-11-4.03-9.75,10.08-17.85,11.87-9.83,2.18-16.27,10.36-22.09,18.57-5.32,7.5-14.17,11.47-22.1,9.22-13.05-3.7-20.74,3.43-29.35,9.98-21.13,16.07-34.64,21.93-52.36,4.61-1.76-1.72-4.68-2.19-6.69-3.72-8.53-6.54-17.21-4.21-24.24,1.36-21.56,17.1-28.61,10.14-43.6-2.89-6.88-5.98-13.94-9.49-22.71-8.58-12.3,1.27-24.56,3.02-36.75,5.04-6.45,1.07-12.95-.01-15.2-5.63-5.66-14.14-17.55-19.49-30.38-22.37-11.96-2.68-15.81-10.02-17.24-20.56-2.07-15.28-8.61-21.74-24.95-24.96,2.11-7.47,7.75-12.08,13.63-16.33,5.37-3.89,12.16-7.75,18-5,4.1,1.92,2.74,9.67,2.97,14.67.24,5.17,1.4,9.02,5.39,12.1,8.76,11.93,21.01,10.58,32.81,7.46,7.75-2.05,12.24-.49,16.49,6.1,8.18,12.67,23.02,17.61,37.3,12.69,5.82-2.01,11.37-4.88,16.87-7.7,13.25-6.81,18.11-6.38,29.63,3.21,2.81,2.34,5.61,4.7,8.38,7.09,7.16,6.18,14.62,6.64,21.62.19,9.3-8.55,19.06-9.62,29.82-3.25,14.23,9.43,17.07,9.36,30.64-.41,8.58-6.18,17.43-9.27,27.19-2.22,4.6,3.33,8.94,2.52,12.68-1.61,4.82-5.31,10.69-6.19,16.98-3.51,3.85,1.64,4.56,1.28,6.59-3.03,4.1-8.72,2.91-18.76,7.99-26.98Z" style="fill:#fcfaf9; stroke-width:0px;"/><path d="m291.82,317.22c2.41-19.17,4.12-38.32.26-57.55-.64-3.17-.44-6.7,3.47-8.32,21.84,36.39,35.62,75.23,35.68,118.17.02,18.77-.97,20.57-18.53,25.3-17.68,4.76-35.87,7.1-54.14,8.38-7.45.52-13.19-1.49-15.98-9.9-3.15-9.49-11-14.07-20.76-15.79-20.4-3.6-40.89-2.31-61.38-1.58-8.6.31-15.7,3.86-20.05,11.47-3.19,5.58-6.87,6.19-12.7,3.9-14.74-5.79-28.53-13.26-41.95-21.55-5.13-3.17-7.48-6.95-3.54-12.58,22.73,10.62,46.32,9.1,70.65,7.53,16.08-1.04,32.74.84,49.12,1.59,16.15.74,32.01-2.43,48.08-2.27.74.02,1.47.04,2.21.06,3.44,3.18,3.91.28,4.57-2.23,13.02-1.67,23.35-7.17,28.45-20.07.15-1.37.3-2.74.45-4.11,1.72,1.06,2.26,4.27,4.98,3.3,3.34-1.18,3.36-4.3,3.31-7.25,8.88-6.78,3.43-11.65-2.2-16.49Z" style="fill:#e04542; stroke-width:0px;"/><path d="m50.05,396.88c0-.7.15-1.36.46-1.98,5.34-4.83,6.6-12.04,10.33-17.85,4.12-6.42,8.63-8.68,15.43-4.52,17.16,10.48,33.8,21.92,53.39,27.76,6.87,2.05,3.17,8.95,2.31,11.04-3.87,9.43-4.12,19.3-4.87,28.97-.62,8.05-4.38,8.18-10.07,6.38-5.41-1.71-10.1-4.79-12.55-10.01-4.5-9.6-12.31-10.36-21.24-8.67-1.43.27-2.79.93-4.22,1.2-20.87,4.01-29.74-3.83-28.42-25.07.15-2.43,1.81-5-.57-7.24Z" style="fill:#ba7647; stroke-width:0px;"/><path d="m239.12,56.21c-4.37,1.4-8.73,2.8-13.1,4.21-9.58-6.44-20.3-2.77-24.36,8.34-.56.26-1.14.35-1.75.26-2.68-2.92-5.65-5.64-7.99-8.81-7.08-9.58-3.94-22.68,6.61-27.31,4.4-1.93,9.42-3.48,11.73,3.03,1.29,3.63,3.45,6.03,7.19,4.71,4.35-1.53,2.62-5.24,1.78-8.35-3.26-11.98,1.04-19.23,14.01-23.59,13.43-4.51,23.42-1.27,27.3,9.48,1.25,3.47,1.91,6.6,6.27,5.22,9.38-2.96,14.87,3.03,20.68,8.48.62.68,1.25,1.37,1.87,2.05.56.63,1.12,1.27,1.68,1.9-11.66,2.46-16.93,12.72-24.4,20.22-4.56,4.58-7.63,8.04-13.32.55-2.87-3.78-9.25-10.06-14.19-.4Z" style="fill:#fcfaf9; stroke-width:0px;"/><path d="m245.87,448.57s.24-.75.24-.75c0-13.28-.01-26.55-.01-39.83,23.94,5.9,46.78-1.08,69.83-5.85,7.09-1.47,13.43-5.86,21.02-5.33-.07,1.49-.14,2.98-.2,4.47-.2,3.73-.4,7.46-.6,11.18-.42,1.77-.97,3.52-1.25,5.31-1.59,10.15-4.85,17.2-16.75,20.81-8.65,2.62-15.96,4.52-24.85,2.67-7.58-1.58-15.51.12-21.71,5.03-6.99,5.53-14.14,8.01-22.78,5.15,0,0-.73.39-.73.39-.73-1.08-1.46-2.17-2.2-3.25Z" style="fill:#ba7647; stroke-width:0px;"/><path d="m191.34,393.8c-2.99.14-4.82.24-6.64.31-32.72,1.25-40.32,9.12-40.45,42.03,0,1.8.88,3.7.54,5.39-.9,4.42-5.07,5.47-8.38,5.4-3.87-.08-1.93-3.94-1.95-6.14-.17-16.27,2.81-31.86,10.03-46.57,3.58-7.3,9.12-11.19,17.28-11.28,17.54-.21,35.07-1.38,52.57,1.27,16.57,2.51,23.25,8.93,24.22,25.67.48,8.35-.94,16.8-.53,25.16.36,7.45-2.16,10-9.28,7.9-2.49-.74-6.3,2.2-7.42-2.08-.94-3.58-.51-7.1,2.59-10.04,6.69-6.34,3.76-13.02,2.01-20.88-5-22.42-22.1-14.78-34.58-16.14Z" style="fill:#edd234; stroke-width:0px;"/><path d="m215.76,403.75c-8.4,3.46-17.03,2.14-25.5,1.9-7.57-.22-11.76,2.55-12.5,10.27-.79,8.25,3.47,12.37,11.06,13.39,5.42.72,11.04.22,16.36,1.28,3.53.7,8.75.72,9.18,5.98.37,4.5,1.66,9.68-3.86,12.64-4.43,2.37-8.52,6.21-13.93,2.09-2.61-1.99-5.79-3.4-7.98-5.76-9.28-9.98-20.38-12.23-32.93-8.08-5.36,1.77-6.07-.63-6.57-5.13-1.06-9.51,2.64-17.81,5.92-26.23.91-2.34,2.74-4.38,5.69-4.55,18.4-1.03,36.87-4.91,55.05,2.19Z" style="fill:#ba7647; stroke-width:0px;"/><path d="m248.8,451.42c8.63,2.86,15.79.38,22.78-5.15,6.2-4.9,14.14-6.6,21.71-5.03,8.89,1.85,16.2-.04,24.85-2.67,11.89-3.61,15.16-10.66,16.75-20.81.28-1.79.83-3.54,1.25-5.31,2.3,2.14,4.16,5.23,8.13,3.81,0,0,.32.34.32.34-5.08,8.22-3.89,18.26-7.99,26.98-2.02,4.31-2.73,4.67-6.59,3.03-6.28-2.68-12.16-1.81-16.98,3.51-3.75,4.13-8.08,4.94-12.68,1.61-9.75-7.05-18.6-3.95-27.19,2.22-13.57,9.77-16.41,9.84-30.64.41,2.47-.19,4.6-1.07,6.28-2.95Z" style="fill:#4e2930; stroke-width:0px;"/><path d="m192.47,411.14c6.86.43,14.14.92,21.42,1.34,4.56.26,8.17,1.94,7.73,7.09-.51,5.87-4.89,6.51-9.69,5.82-7.2-1.03-14.42-1.98-21.59-3.17-3.53-.58-7.72-.86-6.99-6.27.71-5.32,4.2-6.19,9.13-4.83Z" style="fill:#edd234; stroke-width:0px;"/><path d="m201.66,68.75c4.06-11.1,14.78-14.77,24.36-8.34-.78.96-1.56,1.91-2.34,2.87-7.2,2.38-12.59,12.03-22.01,5.47Z" style="fill:#eee7e5; stroke-width:0px;"/><path d="m246.1,407.99c0,13.27,0,26.55.01,39.83-4.27-13.27-4.3-26.55-.01-39.83Z" style="fill:#4e2930; stroke-width:0px;"/><path d="m336.74,401.27c.07-1.49.13-2.98.2-4.47,1.76.04,3.52.07,5.28.11,0,1.48,0,2.96,0,4.44-1.83-.02-3.66-.05-5.48-.07Z" style="fill:#4e2930; stroke-width:0px;"/><path d="m340.32,386.45c3.84,2.01,2.38,5.27,1.94,8.29-2.68-2.29-1.77-5.41-1.94-8.29Z" style="fill:#4e2930; stroke-width:0px;"/><path d="m245.87,448.57c.73,1.08,1.46,2.16,2.2,3.25-.73-1.08-1.46-2.16-2.2-3.25Z" style="fill:#4e2930; stroke-width:0px;"/><path d="m9.61,423.16c16.33,3.22,22.87,9.68,24.95,24.96,1.43,10.54,5.28,17.88,17.24,20.56,12.83,2.88,24.72,8.22,30.38,22.37,2.25,5.62,8.75,6.7,15.2,5.63,12.2-2.02,24.46-3.77,36.75-5.04,8.77-.9,15.84,2.61,22.71,8.58,14.99,13.02,22.04,19.98,43.6,2.89,7.03-5.58,15.71-7.91,24.24-1.36,2.01,1.54,4.93,2.01,6.69,3.72,17.71,17.32,31.23,11.46,52.36-4.61,8.61-6.54,16.3-13.68,29.35-9.98,7.92,2.25,16.77-1.72,22.1-9.22,5.82-8.21,12.26-16.39,22.09-18.57,8.1-1.79,6.85-15.9,17.85-11.87.23-2.91.46-5.82.7-8.73,3.59,14.61-.64,26.21-12.11,34.39-4.26,3.04-7.93,4.29-12.53-3.31,2.26,26.7-18.23,32.97-32.87,43.13-8.94,6.2-21.26,1.62-27.11-6.58-3.48-4.88-5.43-.37-7.19,1.94-7.89,10.37-16.95,18.87-29.75,23.26-10.92,3.75-20.69,3.28-30.15-3.46-3.87-2.75-8.03-5.09-12.02-7.67-9.05-5.86-16.89-6.1-25.46,2.13-13.28,12.74-24.99,12.31-38.75.3-3.03-2.65-5.87-5.51-8.8-8.28-13.29-12.57-20.72-13.03-35.38-2.16-17.88,13.26-36.19,8.58-43.04-12.6-3.79-11.73-8.06-17.02-21.26-14.46-10.57,2.05-17.65-5.39-22.48-14.31-4.75-8.77-7.74-17.6.58-26.15,4.57-4.69.94-7.2-2.81-9.13-7.41-3.82-8.4-9.36-5.06-16.37Z" style="fill:#eee7e5; stroke-width:0px;"/><path d="m336.74,401.27c1.83.02,3.66.05,5.48.07.64,3.58-.4,7.57,2.59,10.58-.18,1.45-.37,2.9-.55,4.34-3.97,1.42-5.83-1.66-8.13-3.81.2-3.73.4-7.46.61-11.18Z" style="fill:#5e2226; stroke-width:0px;"/><path d="m239.12,56.21c4.94-9.66,11.32-3.38,14.19.4,5.69,7.49,8.76,4.04,13.32-.55,7.46-7.5,12.74-17.76,24.4-20.22,9.25,12.81,6.53,21.25-8.26,24.12-8.07,1.57-8.26,5.12-3.27,10.03,17.09,16.83,9.06,21.15-9.43,24.62-3.22.6-6.44,1.32-9.7,1.66-7.08.74-11.74-1.15-12.42-9.59-.64-7.93-2.88-15.71-4.02-23.61-.48-3.34-2.42-5.12-4.81-6.86Z" style="fill:#eee7e5; stroke-width:0px;"/><path d="m289.36,33.94c-.63-.69-1.25-1.37-1.87-2.05.63.69,1.25,1.37,1.87,2.05Z" style="fill:#eee7e5; stroke-width:0px;"/><path d="m153.47,271.04c-3.4-.68-4.34-3.61-5.66-6.18-2.14-4.16.32-6.87,3.01-9.54,15.25-15.18,30.45-30.42,45.73-45.56,4.63-4.59,9.88-8.62,14.14-13.52,3.98-4.57,5.27-5.26,11.09-.55,8.45,6.84-.37,6.83-1.87,9.85-2.62,5.25-5.78,8.21-12.55,7.9-2.78-.13-8.21,4.85-8.34,7.69-.74,17.06-15.96,22.23-25.62,31.35-5.42,5.12-11.52,9.59-15.87,15.79-1.13,1.62-1.91,2.98-4.06,2.77Z" style="fill:#ee5e5c; stroke-width:0px;"/><path d="m285.28,341.76c-5.09,12.91-15.42,18.4-28.45,20.07-1.91-.05-3.56.44-4.57,2.23-.74-.02-1.47-.04-2.21-.06,6.41-6.89,10.25-15.86,19.46-20.6,7.51-3.87,2.42-13.31,5.82-19.44,3.77,5.68.03,15.56,9.94,17.81Z" style="fill:#ee5e5c; stroke-width:0px;"/><path d="m285.28,341.76c-9.91-2.25-6.17-12.13-9.94-17.81,1.38-5.74,3.81-4.83,5.68-.54,1.99,4.56,3.17,9.47,4.71,14.23-.15,1.37-.3,2.74-.45,4.11Z" style="fill:#761c1f; stroke-width:0px;"/><path d="m291.82,317.22c5.63,4.84,11.08,9.71,2.2,16.49-1.17-5.44-3.81-10.68-2.2-16.49Z" style="fill:#761c1f; stroke-width:0px;"/><path d="m252.27,364.06c1.01-1.79,2.66-2.28,4.57-2.23-.66,2.51-1.13,5.41-4.57,2.23Z" style="fill:#ef5653; stroke-width:0px;"/></svg>